<svg height="480pt" viewBox="0 -28 480.30582 480" width="480pt" xmlns="http://www.w3.org/2000/svg"><path d="m424.019531 231.90625c0 101.621094-82.378906 184-184 184-101.617187 0-184-82.378906-184-184s82.382813-184 184-184c101.621094 0 184 82.378906 184 184zm0 0" fill="#57b7eb"/><path d="m288.019531 335.90625c-57.914062 0-112.449219-27.265625-147.199219-73.597656-34.75-46.332032-45.65625-106.324219-29.4375-161.921875-55.148437 53.910156-70.824218 136.492187-39.269531 206.863281 31.554688 70.367188 103.644531 113.59375 180.582031 108.273438 76.9375-5.320313 142.394532-58.054688 163.964844-132.097657-34.332031 33.699219-80.535156 52.546875-128.640625 52.480469zm0 0" fill="#4891d3"/><path d="m144.019531 255.90625 48-40-48-32 24-72-37.359375-28c-47.695312 35.25-75.472656 91.328125-74.617187 150.628906.859375 59.300782 30.246093 114.554688 78.9375 148.410156l65.039062-79.039062zm0 0" fill="#a1d51c"/><path d="m200.019531 127.90625 48 8 24-56-6.71875-30.238281c-21.304687-2.976563-42.964843-2.191407-64 2.320312l14.71875 43.917969zm0 0" fill="#a1d51c"/><path d="m333.699219 73.507812-29.679688 54.398438-40 48 40 16-16 48 80 16-32 64 44.320313 31.039062c35.09375-41.347656 50.15625-96.074218 41.164062-149.558593-8.992187-53.484375-41.121094-100.277344-87.804687-127.878907zm0 0" fill="#a1d51c"/><path d="m224.019531 383.90625-6.796875 30.5625c7.5625.921875 15.175782 1.40625 22.796875 1.4375 26.902344.019531 53.476563-5.878906 77.839844-17.28125l-37.839844-22.71875zm0 0" fill="#7ab92d"/><path d="m104.019531 151.90625c-.015625-17.410156 2.460938-34.734375 7.363281-51.4375-39.125 38.402344-59.085937 92.253906-54.445312 146.882812 4.640625 54.628907 33.402344 104.339844 78.445312 135.59375l59.679688-72.476562c-56.320312-32.972656-90.960938-93.304688-91.042969-158.5625zm0 0" fill="#7ab92d"/><path d="m380.339844 350.945312c16.65625-19.703124 29-42.675781 36.242187-67.4375-20.058593 19.589844-44.332031 34.339844-70.960937 43.117188zm0 0" fill="#7ab92d"/><path d="m472.019531 295.90625-232-16-232 16v32l200-13.839844c1.976563 16.039063 15.601563 28.089844 31.761719 28.089844s29.785156-12.050781 31.757812-28.089844l200.480469 13.839844zm0 0" fill="#cc5144"/><path d="m448.019531 247.90625-122.636719-29.199219c-29.085937-6.921875-59.726562-2.183593-85.363281 13.199219v48l208 16zm0 0" fill="#fcbc04"/><path d="m32.019531 247.90625 122.640625-29.199219c29.085938-6.921875 59.726563-2.183593 85.359375 13.199219v48l-208 16zm0 0" fill="#fcbc04"/><path d="m325.382812 218.707031c-29.085937-6.921875-59.726562-2.183593-85.363281 13.199219v24c25.636719-15.382812 56.277344-20.121094 85.363281-13.199219l122.636719 29.199219v-24zm0 0" fill="#f9e109"/><path d="m154.660156 218.707031-122.640625 29.199219v24l122.640625-29.199219c29.085938-6.921875 59.726563-2.183593 85.359375 13.199219v-24c-25.632812-15.382812-56.273437-20.121094-85.359375-13.199219zm0 0" fill="#f9e109"/><path d="m472.019531 295.90625-232-16-232 16v16l202-13.917969c3.621094-.269531 7.191407.984375 9.847657 3.460938 2.660156 2.476562 4.164062 5.945312 4.152343 9.578125-.316406 8.125 5.3125 15.277344 13.28125 16.878906 4.691407.808594 9.5-.511719 13.117188-3.601562 3.617187-3.09375 5.671875-7.636719 5.601562-12.398438-.007812-3.855469 1.589844-7.546875 4.414063-10.171875 2.828125-2.628906 6.621094-3.957031 10.46875-3.667969l201.117187 13.839844zm0 0" fill="#f8664f"/><g fill="#39519d"><path d="m472.582031 319.90625-200.5625-13.757812c-4.390625-.277344-8.179687 3.046874-8.480469 7.4375 0 13.253906-10.742187 24-24 24-13.253906 0-24-10.746094-24-24-.273437-4.019532-3.496093-7.207032-7.519531-7.4375l-200.558593 13.757812c-2.125.144531-4.101563 1.128906-5.5 2.734375-1.394532 1.605469-2.09375 3.703125-1.9414068 5.828125.1445308 2.121094 1.1289068 4.101562 2.7343748 5.496094 1.605469 1.398437 3.703125 2.097656 5.828125 1.941406l193.039063-13.359375c4.976562 17.066406 20.621094 28.800781 38.398437 28.800781 17.777344 0 33.421875-11.734375 38.402344-28.800781l193.039063 13.359375c4.417968.308594 8.25-3.019531 8.558593-7.4375.3125-4.421875-3.019531-8.253906-7.4375-8.5625zm0 0"/><path d="m8.582031 303.90625 231.4375-16 231.441407 16h.558593c4.417969.15625 8.125-3.300781 8.28125-7.71875s-3.300781-8.125-7.71875-8.28125l-224.5625-15.4375v-35.921875c23.054688-12.609375 49.96875-16.203125 75.519531-10.078125l116.480469 27.757812v8c0 4.417969 3.582031 8 8 8s8-3.582031 8-8v-14.320312c.101563-3.789062-2.46875-7.128906-6.160156-8l-122.636719-28.960938c-29.535156-7.089843-60.65625-2.835937-87.203125 11.921876-26.542969-14.757813-57.664062-19.011719-87.199219-11.921876l-122.640624 28.960938c-3.6875.871094-6.261719 4.210938-6.160157 8v38.878906l-16.558593 1.121094c-4.417969.308594-7.75 4.140625-7.4414068 8.5625.3124998 4.417969 4.1445308 7.746094 8.5624998 7.4375zm31.4375-49.679688 116.480469-27.757812c25.554688-6.125 52.46875-2.53125 75.519531 10.078125v35.921875l-192 13.199219zm0 0"/><path d="m372.019531 348.226562c-15.121093 17.097657-33.402343 31.113282-53.839843 41.28125l-34.078126-20.480468c-1.566406-.929688-3.398437-1.296875-5.199218-1.039063l-56 8c-3.308594.449219-5.984375 2.90625-6.722656 6.160157l-5.117188 23.359374c-22.734375-3.890624-44.476562-12.207031-64-24.480468l17.117188-21.121094c2.761718-3.410156 2.261718-8.40625-1.117188-11.199219-1.632812-1.359375-3.742188-2.015625-5.855469-1.820312-2.117187.195312-4.070312 1.222656-5.425781 2.859375l-18.160156 22.160156c-9.300782-7.140625-17.875-15.179688-25.601563-24-2.917969-3.308594-7.964843-3.632812-11.277343-.71875-1.6875 1.410156-2.722657 3.449219-2.859376 5.644531-.136718 2.195313.636719 4.347657 2.136719 5.953125 10.003907 11.289063 21.28125 21.382813 33.601563 30.082032.265625.207031.5625.367187.878906.480468 25.226562 17.496094 54.277344 28.6875 84.722656 32.640625 63.289063 8.453125 126.621094-15.257812 168.796875-63.203125 2.914063-3.3125 2.589844-8.359375-.71875-11.277344-3.316406-2.914062-8.363281-2.589843-11.28125.71875zm-145.039062 59.121094 3.679687-16 48-6.800781 21.679688 13.039063c-19.339844 6.964843-39.761719 10.460937-60.320313 10.320312-4.398437 0-8.71875 0-13.039062-.558594zm0 0"/><path d="m167.222656 28.625c84.777344-30.089844 179.335938-4.613281 237.519532 64 1.523437 1.832031 3.777343 2.886719 6.160156 2.882812 3.121094 0 5.957031-1.816406 7.265625-4.652343 1.304687-2.839844.84375-6.175781-1.1875-8.546875-62.539063-73.683594-164.097657-101.0625-255.199219-68.800782-4.175781 1.5-6.34375 6.105469-4.839844 10.277344 1.5 4.175782 6.105469 6.34375 10.28125 4.839844zm0 0"/><path d="m455.300781 216.46875c.292969 4.195312 3.792969 7.449219 8 7.4375h.71875c4.394531-.339844 7.683594-4.167969 7.363281-8.558594-1.449218-21.046875-5.753906-41.796875-12.800781-61.679687-1.480469-4.175781-6.066406-6.359375-10.242187-4.882813-4.175782 1.480469-6.359375 6.066406-4.878906 10.242188 6.554687 18.515625 10.539062 37.839844 11.839843 57.441406zm0 0"/><path d="m16.019531 223.90625h.800781c4.210938.011719 7.707032-3.242188 8-7.4375 4.253907-57.863281 31.476563-111.617188 75.601563-149.28125 3.378906-2.851562 3.808594-7.902344.960937-11.28125-2.851562-3.378906-7.902343-3.808594-11.28125-.960938-47.335937 40.359376-76.574218 97.96875-81.199218 160-.269532 2.136719.332031 4.292969 1.671875 5.980469 1.339843 1.6875 3.304687 2.761719 5.445312 2.980469zm0 0"/><path d="m257.859375 170.785156c-1.359375 1.632813-2.015625 3.742188-1.820313 5.859375.195313 2.113281 1.226563 4.066407 2.863282 5.421875 1.4375 1.191406 3.25 1.84375 5.117187 1.839844 2.378907.003906 4.636719-1.050781 6.160157-2.878906l40-48c.339843-.394532.632812-.824219.882812-1.28125l25.4375-46.71875c43.109375 28.132812 71.664062 73.804687 78.082031 124.878906.488281 4.039062 3.929688 7.070312 8 7.039062h1.039063c2.113281-.277343 4.03125-1.386718 5.324218-3.085937 1.289063-1.695313 1.851563-3.839844 1.554688-5.953125-7.445312-58.730469-41.570312-110.742188-92.480469-140.960938l-.480469-.398437h-.636718c-21.429688-12.429687-45.066406-20.582031-69.601563-24-.503906-.039063-1.015625-.039063-1.519531 0-8.519531-1.445313-17.125-2.328125-25.761719-2.640625-13.449219.039062-26.859375 1.515625-40 4.402344h-1.199219c-25.953124 5.574218-50.46875 16.46875-72 32-42.878906 31.265625-70.863281 78.917968-77.28125 131.597656-.527343 4.417969 2.625 8.429688 7.042969 8.960938s8.429688-2.621094 8.957031-7.039063c5.75-45.710937 29.257813-87.324219 65.441407-115.839844l27.679687 20.796875-22.160156 66.480469c-.839844 2.0625-.785156 4.386719.15625 6.40625s2.683594 3.554687 4.804688 4.234375c.851562.109375 1.710937.109375 2.558593 0 3.441407.007812 6.5-2.179688 7.601563-5.4375l24-72c1.101562-3.28125-.027344-6.894531-2.800782-8.960938l-28.238281-21.199218c15.867188-10.296875 33.289063-17.96875 51.597657-22.722656l11.203124 33.679687-14.480468 29.042969c-1.140625 2.261718-1.140625 4.933594 0 7.199218 1.140625 2.289063 3.3125 3.898438 5.839844 4.320313l48 8h1.277343c3.210938-.003906 6.109375-1.925781 7.363281-4.882813l24-56c.640626-1.542968.808594-3.238281.476563-4.878906l-4.160156-18.480468c16.449219 3.414062 32.320312 9.179687 47.121093 17.121093l-25.4375 46.640625zm6.160156-91.679687-20.480469 48-31.117187-5.117188 11.117187-22.320312c.980469-1.90625 1.152344-4.125.480469-6.160157l-12.078125-35.199218c9.277344-1.570313 18.667969-2.371094 28.078125-2.402344 6.257813.011719 12.507813.382812 18.722657 1.121094zm0 0"/></g></svg>