<svg height="512pt" viewBox="-47 0 512 512.003" width="512pt" xmlns="http://www.w3.org/2000/svg"><path d="m372.515625 247.46875h-36.914063c-3.386718 1.742188-6.902343 3.289062-10.554687 4.589844l-.664063.238281v13.210937c0 15.515626-12.660156 28.140626-28.222656 28.140626s-28.226562-12.625-28.226562-28.140626v-13.210937l-.660156-.238281c-3.652344-1.300782-7.167969-2.847656-10.554688-4.589844h-15.765625v49.21875c0 5.136719-4.175781 9.3125-9.3125 9.3125h-41.933594v1.007812l.914063.761719c12.660156 10.539063 19.917968 25.976563 19.917968 42.347657v85.070312c.78125-.238281 1.605469-.363281 2.464844-.363281h15.507813l.28125-.246094c.765625-.667969 1.679687-1.039063 2.652343-1.074219 46.609376-1.800781 81.082032-21.167968 102.453126-57.570312 17.542968-29.882813 19.980468-61.285156 20.003906-61.597656.65625-10.652344 9.53125-18.988282 20.210937-18.988282.417969 0 .835938.015625 1.257813.039063 5.40625.332031 10.355468 2.757812 13.945312 6.824219 3.585938 4.066406 5.378906 9.285156 5.046875 14.691406-.101562 1.605468-2.691406 39.769531-24.582031 77.96875-19.894531 34.714844-59.988281 76.632812-138.027344 79.195312l-.144531.003906c-.863281 0-1.710937-.265624-2.445313-.773437l-.253906-.179687h-18.371094v38.882812h186.921876c2.84375 0 5.152343-2.304688 5.152343-5.152344v-229.371094c0-16.546874-13.5-30.007812-30.097656-30.007812zm0 0" fill="#fb8276"/><path d="m209.953125 183.113281h-6.886719v11.789063h9.699219c-1.191406-3.824219-2.136719-7.761719-2.8125-11.789063zm0 0" fill="#f7931e"/><path d="m65.519531 291.195312.804688-.730468-.792969-.742188c-12.335938-11.519531-20.828125-26.308594-24.550781-42.773437l-.175781-.777344h-15.375c-9.183594 0-16.65625-7.363281-16.65625-16.414063v-18.441406c0-9.050781 7.472656-16.414062 16.65625-16.414062h13.464843v-15.339844c0-2.273438 1.878907-4.121094 4.191407-4.121094h32.195312c.183594-.011718.289062-.019531.390625-.019531 20.851563-.355469 40.699219-8.503906 55.894531-22.953125.785156-.746094 1.820313-1.160156 2.914063-1.160156s2.128906.414062 2.914062 1.160156c10.621094 10.109375 23.734375 17.25 37.921875 20.652344l1.867188.445312-.484375-1.226562c-.058594-.128906-.105469-.269532-.15625-.398438l-.066407-.160156c-.015624-.039062-.023437-.082031-.039062-.121094-.179688-.460937-.34375-.925781-.480469-1.402344-.023437-.082031-.042969-.167968-.066406-.25-.121094-.4375-.234375-.875-.320313-1.324218-.039062-.207032-.0625-.414063-.097656-.625-.050781-.332032-.109375-.660156-.140625-1-.054687-.5625-.085937-1.128906-.085937-1.699219v-19.859375c0-8.082031 5.550781-15.140625 13.5-17.167969l.753906-.191406v-41.074219c-19.496094-13.269531-43.101562-21.050781-68.523438-21.050781-66.703124 0-120.976562 53.550781-120.976562 119.375v111.296875c0 5.695312 4.617188 10.3125 10.3125 10.3125h43.351562c2.882813-5.910156 6.878907-11.296875 11.855469-15.804688zm0 0" fill="#f7931e"/><path d="m233.265625 229.929688-.261719 1.964843c-1.078125 8.140625-8.164062 14.277344-16.476562 14.277344h-15.386719l-.175781.777344c-4.511719 19.957031-16.152344 37.324219-32.128906 49.039062 7.828124 2.160157 14.976562 5.960938 21.046874 11.011719h41.757813c5.695313 0 10.316406-4.617188 10.316406-10.3125v-58.765625c-3.070312-2.464844-5.972656-5.132813-8.691406-7.992187zm0 0" fill="#f7931e"/><path d="m136.8125 67.035156c-5.183594-.667968-10.46875-1.019531-15.835938-1.019531-66.703124 0-120.97265575 53.550781-120.97265575 119.375v111.296875c0 5.695312 4.61718775 10.3125 10.31249975 10.3125h31.667969c-5.695313 0-10.316406-4.617188-10.316406-10.3125v-49.515625h-6.238281c-9.75 0-17.65625-7.796875-17.65625-17.414063v-18.441406c0-9.617187 7.90625-17.414062 17.65625-17.414062h6.238281v-8.511719c0-60.527344 45.894531-110.675781 105.144531-118.355469zm0 0" fill="#de841b"/><path d="m296.160156 257.054688c-10.246094 0-20.082031-1.808594-29.222656-5.113282v13.566406c0 16.09375 13.085938 29.140626 29.222656 29.140626 16.140625 0 29.226563-13.046876 29.226563-29.140626v-13.566406c-9.144531 3.304688-18.980469 5.113282-29.226563 5.113282zm0 0" fill="#ffb98a"/><path d="m282.585938 265.507812v-9.527343c-5.394532-.859375-10.628907-2.222657-15.652344-4.042969v13.570312c0 16.09375 13.085937 29.140626 29.226562 29.140626 2.710938 0 5.332032-.375 7.824219-1.066407-12.335937-3.410156-21.398437-14.683593-21.398437-28.074219zm0 0" fill="#e5a67c"/><path d="m202.226562 473.117188c-7.824218 0-14.1875-6.222657-14.1875-13.871094 0-7.648438 6.363282-13.871094 14.1875-13.871094h2.773438l-.191406-1.160156c-.074219-.476563-.113282-.894532-.113282-1.277344 0-3.988281 2.960938-7.304688 6.847657-7.980469v-84.839843c0-26.109376-17.960938-48.113282-42.207031-54.375-7.019532 5.183593-14.941407 9.304687-23.578126 12.09375l-1.074218.34375.472656 1.023437c2.984375 6.460937 4.5 13.347656 4.5 20.476563 0 18.640624-10.398438 35.425781-27.132812 43.796874l-1.703126.851563 1.667969.917969c2.480469 1.371094 4.808594 2.980468 6.910157 4.789062l.355468.308594.460938-.078125c7.164062-1.203125 25.578125-5.878906 41.800781-23.3125 2.273437-2.4375 5.359375-3.785156 8.699219-3.785156 3.007812 0 5.878906 1.132812 8.085937 3.183593 4.792969 4.460938 5.0625 11.992188.601563 16.785157-16.167969 17.375-33.460938 25.019531-45.121094 28.375l-.726562.207031v44.285156c0 2.289063-1.863282 4.15625-4.15625 4.15625h-73.222657c-2.292969 0-4.15625-1.863281-4.15625-4.15625v-35.1875c0-14.035156 7.144531-26.902344 19.117188-34.417968l1.609375-1.007813-1.746094-.753906c-5.097656-2.207031-9.761719-5.246094-13.855469-9.027344l-.273437-.253906-.375-.011719c-1.289063-.042969-2.367188-.105469-3.390625-.203125-.496094-.046875-.957031-.28125-1.292969-.652344-8.652344-9.5625-13.417969-21.921875-13.417969-34.808593 0-9.335938 2.5625-18.433594 7.246094-26.355469-15.191406 10.070312-25.226563 27.28125-25.226563 46.796875v156.730468c0 2.84375 2.304688 5.152344 5.148438 5.152344h175.976562v-38.882812h-9.3125zm0 0" fill="#1e8bc2"/><path d="m77.042969 475.648438v10.074218c0 9.101563 7.378906 16.480469 16.484375 16.480469 9.101562 0 16.480468-7.378906 16.480468-16.480469v-10.074218zm0 0" fill="#d5e962"/><path d="m142.824219 475.648438h-24.574219v10.074218c0 9.101563 7.378906 16.480469 16.480469 16.480469 9.105469 0 16.484375-7.378906 16.484375-16.480469v-12.902344c-2.324219 1.765626-5.230469 2.828126-8.390625 2.828126zm0 0" fill="#d5e962"/><path d="m38.894531 228.230469v-34.328125h-13.464843c-9.75 0-17.65625 7.796875-17.65625 17.414062v18.441406c0 9.617188 7.90625 17.414063 17.65625 17.414063h15.621093c-1.394531-6.089844-2.15625-12.425781-2.15625-18.941406zm0 0" fill="#ffd5b3"/><path d="m212.464844 193.902344h-9.402344v34.328125c0 6.515625-.761719 12.851562-2.15625 18.941406h15.621094c9.382812 0 17.035156-7.222656 17.601562-16.335937-9.902344-10.121094-17.441406-22.710938-21.664062-36.933594zm0 0" fill="#ffd5b3"/><path d="m193.257812 183.113281c-7.378906 0-13.730468-4.402343-16.511718-10.675781-14.390625-3.222656-27.722656-10.285156-38.660156-20.691406-1.007813-.957032-2.308594-1.4375-3.609376-1.4375-1.296874 0-2.597656.480468-3.601562 1.4375-15.007812 14.273437-34.617188 22.328125-55.21875 22.675781-.125.003906-.25.007813-.375.019531h-32.195312c-2.867188 0-5.191407 2.292969-5.191407 5.121094v48.667969c0 24.964843 10.707031 47.429687 27.6875 62.910156 9.25-8.351563 21.511719-13.445313 34.945313-13.445313h48.128906c1.105469 0 2 .898438 2 2 0 8.574219-3.082031 15.800782-9.15625 21.476563l-.625.582031.476562.707032c1.425782 2.125 2.671876 4.339843 3.742188 6.628906 34.085938-10.535156 58.96875-42.792969 58.96875-80.859375v-45.117188zm0 0" fill="#ffc987"/><path d="m63.015625 228.230469v-48.667969c0-2.828125 2.324219-5.121094 5.191406-5.121094h-25.121093c-2.867188 0-5.191407 2.292969-5.191407 5.121094v48.667969c0 24.964843 10.707031 47.425781 27.6875 62.910156 4.628907-4.179687 10.019531-7.527344 15.925781-9.839844-11.554687-14.515625-18.492187-32.980469-18.492187-53.070312zm0 0" fill="#e5b579"/><g fill="#775436"><path d="m74.535156 222.109375c-4.140625 0-7.5-3.359375-7.5-7.5v-10.460937c0-4.144532 3.359375-7.5 7.5-7.5s7.5 3.355468 7.5 7.5v10.460937c0 4.140625-3.359375 7.5-7.5 7.5zm0 0"/><path d="m167.421875 222.109375c-4.140625 0-7.5-3.359375-7.5-7.5v-10.460937c0-4.144532 3.359375-7.5 7.5-7.5s7.5 3.355468 7.5 7.5v10.460937c0 4.140625-3.359375 7.5-7.5 7.5zm0 0"/><path d="m128.054688 239.308594h-8.996094c-6.980469 0-12.65625-5.675782-12.65625-12.65625v-18.367188c0-4.140625 3.359375-7.5 7.5-7.5s7.5 3.359375 7.5 7.5v16.023438h6.652344c4.140624 0 7.5 3.359375 7.5 7.5s-3.359376 7.5-7.5 7.5zm0 0"/><path d="m120.976562 273.773438c-11.363281 0-22.726562-4.265626-31.378906-12.800782-2.949218-2.90625-2.980468-7.65625-.074218-10.605468 2.910156-2.949219 7.65625-2.984376 10.605468-.074219 11.496094 11.339843 30.203125 11.339843 41.695313.003906 2.949219-2.910156 7.699219-2.878906 10.605469.070313 2.910156 2.949218 2.878906 7.699218-.070313 10.605468-8.652344 8.53125-20.015625 12.800782-31.382813 12.800782zm0 0"/><path d="m193.257812 127.746094h15.441407v-25.039063c0-4.296875 3.507812-7.792969 7.816406-7.792969h159.289063c4.3125 0 7.816406 3.496094 7.816406 7.792969v25.039063h15.441406c1.648438 0 3.242188.238281 4.761719.648437v-63.191406c0-25.730469-20.925781-46.597656-46.734375-46.597656-11.667969 0-22.332032 4.277343-30.519532 11.328125-14.09375-18.199219-36.175781-29.933594-61.015624-29.933594-42.558594 0-77.054688 34.398438-77.054688 76.832031v51.5625c1.519531-.410156 3.109375-.648437 4.757812-.648437zm0 0"/></g><path d="m193.257812 127.746094h15.441407v-25.039063c0-4.296875 3.507812-7.792969 7.816406-7.792969h3.867187v-18.082031c0-36.980469 26.207032-67.851562 61.113282-75.175781-5.144532-1.078125-10.476563-1.65625-15.941406-1.65625-42.558594 0-77.054688 34.398438-77.054688 76.832031v51.5625c1.519531-.410156 3.109375-.648437 4.757812-.648437zm0 0" fill="#6b4b30"/><path d="m208.699219 168.085938v-41.339844h-15.441407c-10.5 0-19.011718 8.394531-19.011718 18.753906v19.855469c0 10.359375 8.511718 18.753906 19.011718 18.753906h16.867188c-.933594-5.199219-1.425781-10.554687-1.425781-16.023437zm0 0" fill="#ffb98a"/><path d="m399.0625 126.746094h-15.441406v41.339844c0 5.46875-.492188 10.824218-1.425782 16.027343h16.867188c10.503906 0 19.015625-8.398437 19.015625-18.753906v-19.859375c0-10.359375-8.511719-18.753906-19.015625-18.753906zm0 0" fill="#ffb98a"/><path d="m296.160156 258.054688c-48.777344 0-88.460937-40.359376-88.460937-89.96875v-65.378907c0-4.855469 3.949219-8.792969 8.816406-8.792969h159.289063c4.871093 0 8.816406 3.9375 8.816406 8.792969v65.378907c0 49.609374-39.683594 89.96875-88.460938 89.96875zm0 0" fill="#ffd5b3"/><path d="m239.394531 168.085938v-65.378907c0-4.855469 3.945313-8.792969 8.8125-8.792969h-31.691406c-4.867187 0-8.816406 3.9375-8.816406 8.792969v65.378907c0 49.609374 39.683593 89.96875 88.460937 89.96875 5.410156 0 10.703125-.5 15.847656-1.449219-41.242187-7.617188-72.613281-44.410157-72.613281-88.519531zm0 0" fill="#e5bfa1"/><path d="m249.007812 160.828125c-4.140624 0-7.5-3.359375-7.5-7.5v-11.269531c0-4.140625 3.359376-7.5 7.5-7.5 4.140626 0 7.5 3.359375 7.5 7.5v11.269531c0 4.140625-3.359374 7.5-7.5 7.5zm0 0" fill="#775436"/><path d="m343.3125 160.828125c-4.140625 0-7.5-3.359375-7.5-7.5v-11.269531c0-4.140625 3.359375-7.5 7.5-7.5 4.144531 0 7.5 3.359375 7.5 7.5v11.269531c0 4.140625-3.355469 7.5-7.5 7.5zm0 0" fill="#775436"/><path d="m303.78125 190.835938h-10.085938c-6.976562 0-12.65625-5.679688-12.65625-12.65625v-22.964844c0-4.144532 3.359376-7.5 7.5-7.5 4.144532 0 7.5 3.355468 7.5 7.5v20.621094h7.742188c4.140625 0 7.5 3.355468 7.5 7.5 0 4.140624-3.359375 7.5-7.5 7.5zm0 0" fill="#775436"/><path d="m294.332031 226.59375c-12.089843 0-24.183593-4.539062-33.390625-13.621094-2.949218-2.90625-2.980468-7.65625-.074218-10.605468 2.910156-2.949219 7.65625-2.980469 10.609374-.070313 12.601563 12.429687 33.109376 12.429687 45.714844 0 2.949219-2.910156 7.695313-2.878906 10.605469.070313 2.910156 2.949218 2.875 7.699218-.074219 10.605468-9.207031 9.082032-21.296875 13.621094-33.390625 13.621094zm0 0" fill="#775436"/><path d="m231.753906 474.066406-.140625.003906c-1.125 0-2.195312-.433593-3.003906-1.214843-.835937-.808594-1.316406-1.941407-1.316406-3.105469v-31.933594c0-1.816406 1.117187-3.355468 2.710937-3.996094h-17c-5.140625 0-9.308594 4.082032-9.308594 9.117188 0 .488281.050782.96875.125 1.4375h-1.597656c-8.386718 0-15.183594 6.65625-15.183594 14.871094 0 8.210937 6.796876 14.871094 15.183594 14.871094h31.796875v-.144532c-.753906.035156-1.503906.070313-2.265625.09375zm0 0" fill="#ffd5b3"/><path d="m231.613281 475.070312c-1.378906 0-2.703125-.535156-3.699219-1.496093-1.035156-1.003907-1.617187-2.382813-1.617187-3.824219v-31.933594c0-2.859375 2.257813-5.203125 5.113281-5.3125 46.246094-1.785156 80.4375-20.988281 101.625-57.074218 17.386719-29.617188 19.847656-60.851563 19.871094-61.164063.683594-11.148437 10.003906-19.917969 21.210938-19.917969.4375 0 .875.011719 1.320312.042969 5.671875.347656 10.867188 2.890625 14.632812 7.160156 3.761719 4.265625 5.640626 9.742188 5.292969 15.414063-.101562 1.613281-2.699219 39.988281-24.710937 78.402344-20.019532 34.9375-60.363282 77.121093-138.863282 79.699218-.058593.003906-.117187.003906-.175781.003906zm0 0" fill="#c5ccd3"/><path d="m143.101562 447.855469c-.683593 1.359375-2.078124 2.300781-3.699218 2.300781h-23.308594v26.492188h26.730469c8.121093 0 14.707031-6.449219 14.707031-14.402344 0-7.863282-6.4375-14.246094-14.429688-14.390625zm0 0" fill="#ffc987"/><path d="m66.175781 450.15625c-2.292969 0-4.15625-1.863281-4.15625-4.152344v-35.1875c0-8.863281 2.855469-17.253906 7.96875-24.128906v-16.394531c0-.8125-.066406-1.609375-.164062-2.394531-.917969-.734376-1.8125-1.492188-2.679688-2.292969l-.273437-.253907-.371094-.011718c-1.289062-.039063-2.367188-.105469-3.394531-.203125-.496094-.046875-.957031-.277344-1.292969-.648438-3.664062-4.054687-6.625-8.613281-8.828125-13.496093-.914063-.128907-1.835937-.214844-2.785156-.214844-10.925781 0-19.785157 8.734375-19.785157 19.511718v86.84375c0 10.777344 8.859376 19.515626 19.785157 19.515626h67.269531v-26.492188zm0 0" fill="#046699"/><path d="m120.871094 311.625-.734375.179688-.023438.757812c-.140625 4.074219-.53125 9.5625-1.066406 11.984375-.128906.601563-.542969 1.117187-1.101563 1.382813-.269531.125-.554687.1875-.851562.1875-.316406 0-.632812-.078126-.914062-.222657-2.113282-1.085937-4.386719-1.636719-6.746094-1.636719-8.128906 0-14.742188 6.589844-14.742188 14.691407 0 4.699219 2.1875 9.003906 6 11.8125.496094.367187.800782.953125.8125 1.570312.011719.617188-.265625 1.214844-.75 1.601563-9.210937 7.382812-20.796875 11.449218-32.621094 11.449218-.894531 0-1.816406-.03125-2.75-.082031 4.65625 4.5625 10.199219 8.234375 16.351563 10.71875 6.148437-3.714843 13.355469-5.855469 21.054687-5.855469 6.695313 0 13.246094 1.652344 19.085938 4.742188 17.003906-7.996094 28.78125-25.238281 28.78125-45.226562 0-10.660157-3.359375-20.53125-9.0625-28.648438-6.75 6.378906-15.640625 9.34375-20.722656 10.59375zm0 0" fill="#ffd5b3"/><path d="m68.136719 366.382812c-1.660157 0-3.382813-.085937-5.125-.25-.746094-.070312-1.4375-.417968-1.941407-.976562-8.816406-9.746094-13.671874-22.347656-13.671874-35.476562 0-29.21875 23.832031-52.984376 53.128906-52.984376h48.128906c1.65625 0 3 1.339844 3 3 0 22.789063-21.015625 30.554688-30.542969 32.902344-.121093 3.503906-.488281 9.429688-1.085937 12.164063-.199219.910156-.8125 1.675781-1.652344 2.070312-.40625.191407-.84375.285157-1.28125.285157-.46875 0-.941406-.109376-1.371094-.332032-1.972656-1.015625-4.089844-1.527344-6.289062-1.527344-7.578125 0-13.742188 6.144532-13.742188 13.695313 0 4.375 2.039063 8.386719 5.59375 11.003906.75.554688 1.199219 1.421875 1.21875 2.355469.019532.929688-.394531 1.816406-1.125 2.402344-9.386718 7.523437-21.195312 11.667968-33.242187 11.667968zm0 0" fill="#775436"/><path d="m129.570312 347.972656c-4.140624 0-7.5-3.359375-7.5-7.5v-4.0625c0-4.140625 3.359376-7.5 7.5-7.5 4.140626 0 7.5 3.359375 7.5 7.5v4.0625c0 4.140625-3.359374 7.5-7.5 7.5zm0 0" fill="#775436"/><path d="m66.175781 451.15625c-2.847656 0-5.15625-2.308594-5.15625-5.152344v-35.1875c0-22.964844 18.738281-41.648437 41.769531-41.648437 10 0 19.683594 3.589843 27.261719 10.109375 7.0625-1.183594 25.21875-5.796875 41.234375-23.003906 2.464844-2.648438 5.8125-4.105469 9.429688-4.105469 3.261718 0 6.375 1.226562 8.769531 3.449219 5.195313 4.839843 5.488281 13.003906.652344 18.203124-16.324219 17.539063-33.796875 25.261719-45.578125 28.652344v43.53125c0 2.847656-2.308594 5.15625-5.15625 5.15625h-73.226563zm0 0" fill="#d5e962"/><path d="m92.976562 446.003906v-35.1875c0-17.320312 10.664063-32.199218 25.785157-38.472656-5.027344-2.078125-10.453125-3.175781-15.972657-3.175781-23.03125 0-41.769531 18.683593-41.769531 41.648437v35.1875c0 2.84375 2.308594 5.152344 5.15625 5.152344h31.957031c-2.847656 0-5.15625-2.308594-5.15625-5.152344zm0 0" fill="#bfd158"/></svg>