<svg id="Layer_5" enable-background="new 0 0 64 64" height="512" viewBox="0 0 64 64" width="512" xmlns="http://www.w3.org/2000/svg"><g><g><g><path d="m28 21c0 1.1-.9 2-2 2h-2.95c-1.97 0-3.93-.29-5.79-.86-1.87-.56-3.65-1.4-5.29-2.5-.63-.42-1.38-.64-2.13-.64-2.12 0-3.84 1.72-3.84 3.84v2.16h-1c-.81 0-1.54.32-2.07.83-.61-1.35-.93-2.83-.93-4.33 0-5.8 4.7-10.5 10.5-10.5h5.89c2.35 0 4.65-.7 6.61-2l2.06 1.77c1.57 1.34 2.8 2.99 3.65 4.82.42.91.74 1.87.96 2.86s.33 2.02.33 3.05c0 1.5-.32 2.97-.93 4.33-.53-.51-1.26-.83-2.07-.83h-1z" fill="#656d78"/></g><g><path d="m18.22 43.22 1.78 9.78h-6l1.78-9.78 1.22-1.22z" fill="#ffeaa7"/></g><g><path d="m24.14 41.36c2 1.48 3.52 3.57 4.29 5.99l-1.01 1.52c-.82 1.23-1.3 2.65-1.4 4.13h-6.02l-1.78-9.78 2.78 2.78 2.01-5.37.01-.01c.39.23.76.47 1.12.74z" fill="#ff826e"/></g><g><path d="m5 51c0-4.44 2.41-8.31 5.98-10.39l.01.02 2.01 5.37 2.78-2.78-1.78 9.78h-9z" fill="#ff826e"/></g><g><path d="m10.99 40.63-.01-.02c1.77-1.02 3.83-1.61 6.02-1.61 2.2 0 4.26.59 6.02 1.62l-.01.01-2.01 5.37-2.78-2.78-1.22-1.22-1.22 1.22-2.78 2.78z" fill="#fc6e51"/></g><g><path d="m6 25v6h-1c-.83 0-1.58-.34-2.12-.88s-.88-1.29-.88-2.12c0-.85.36-1.62.93-2.17.53-.51 1.26-.83 2.07-.83z" fill="#f0d0b4"/></g><g><path d="m6 31v-6-2.16c0-2.12 1.72-3.84 3.84-3.84.75 0 1.5.22 2.13.64 1.64 1.1 3.42 1.94 5.29 2.5 1.86.57 3.82.86 5.79.86h2.95c1.1 0 2-.9 2-2v4 6c0 4.42-3.58 8-8 8h-3-3c-4.42 0-8-3.58-8-8z" fill="#f0d0b4"/></g><g><path d="m31.07 25.83c.17.16.31.33.43.52h.01c.31.47.49 1.04.49 1.65 0 .83-.34 1.58-.88 2.12s-1.29.88-2.12.88h-1v-6h1c.81 0 1.54.32 2.07.83z" fill="#f0d0b4"/></g><g><path d="m42 59.02c.73-.87 1.29-1.88 1.63-2.99.12-.02.24-.03.37-.03h2 4 4 4 2c1.1 0 2 .9 2 2v2c0 1.1-.9 2-2 2h-16c-1.1 0-2-.9-2-2z" fill="#fcd770"/></g><g><path d="m58 44h2c1.1 0 2 .9 2 2v2c0 1.1-.9 2-2 2h-2-4-4-4-2c-.26 0-.5.05-.73.14-.18-.44-.42-.86-.69-1.27l-.58-.87v-2c0-1.1.9-2 2-2h2 4 4z" fill="#fcd770"/></g><g><path d="m46 38h-2c-.96 0-1.77-.69-1.96-1.6-.03-.13-.04-.26-.04-.4v-2c0-1.1.9-2 2-2h2 4 4 4 2c1.1 0 2 .9 2 2v2c0 1.1-.9 2-2 2h-2-4-4z" fill="#fcd770"/></g><g><path d="m38 20-6.49 6.35h-.01c-.12-.19-.26-.36-.43-.52.61-1.36.93-2.83.93-4.33 0-1.03-.11-2.06-.33-3.05l6.33-6.45 5 5 7-7-5-5 14.82-2.96c.12-.03.24-.04.36-.04 1.01 0 1.82.81 1.82 1.82 0 .12-.01.24-.04.36l-2.96 14.82-5-5-11 11z" fill="#fcd770"/></g><g><path d="m44 53.56c0-.7-.09-1.38-.73-3.42.23-.09.47-.14.73-.14h2 4 4 4 2c1.1 0 2 .9 2 2v2c0 1.1-.9 2-2 2h-2-4-4-4-2c-.12 0-.24-.01-.35-.03.23-.76.35-1.57.35-2.41z" fill="#ffc729"/></g><g><path d="m46 44h-2c-1.1 0-2-.9-2-2v-2c0-1.1.9-2 2-2h2 4 4 4 2c1.1 0 2 .9 2 2v2c0 1.1-.9 2-2 2h-2-4-4z" fill="#ffc729"/></g><g><path d="m46 32h-2c-1.1 0-2-.9-2-2v-2c0-.89.59-1.66 1.41-1.91.18-.06.38-.09.59-.09h2 4 4 4 2c1.1 0 2 .9 2 2v2c0 1.1-.9 2-2 2h-2-4-4z" fill="#ffc729"/></g><g><path d="m42 36.83c0 .75-.3 1.47-.83 2l-3.17 3.17h-6l-1.66-3.32c-.22-.45-.34-.94-.34-1.44 0-.9.36-1.7.95-2.29s1.39-.95 2.29-.95h.76l2 3 2-3h1.17c1.42 0 2.6 1.05 2.8 2.41.02.14.03.28.03.42z" fill="#a0d468"/></g><g><path d="m35.56 62h-1.12c-2.33 0-4.44-.94-5.97-2.47s-2.47-3.64-2.47-5.97c0-.19.01-.38.02-.56.1-1.48.58-2.9 1.4-4.13l1.01-1.52 3.57-5.35h6l4 6 .58.87c.27.41.51.83.69 1.27.64 2.04.73 2.72.73 3.42 0 .84-.12 1.65-.35 2.41 0 .02-.01.04-.02.06-.34 1.11-.9 2.12-1.63 2.99-1.55 1.82-3.86 2.98-6.44 2.98z" fill="#b4dd7f"/></g></g><g><path d="m34 49h2c.551 0 1 .448 1 1h2c0-1.654-1.346-3-3-3v-2h-2v2c-1.654 0-3 1.346-3 3s1.346 3 3 3h2c.551 0 1 .448 1 1s-.449 1-1 1h-2c-.551 0-1-.448-1-1h-2c0 1.654 1.346 3 3 3v2h2v-2c1.654 0 3-1.346 3-3s-1.346-3-3-3h-2c-.551 0-1-.448-1-1s.449-1 1-1z"/><path d="m14 28h2c0-2.206-1.794-4-4-4s-4 1.794-4 4h2c0-1.103.897-2 2-2s2 .897 2 2z"/><path d="m22 26c1.103 0 2 .897 2 2h2c0-2.206-1.794-4-4-4s-4 1.794-4 4h2c0-1.103.897-2 2-2z"/><path d="m21.898 32.47.051-.154-1.898-.631-.051.153c-.431 1.293-1.637 2.162-3 2.162s-2.569-.869-3-2.161l-.051-.154-1.898.631.052.155c.703 2.111 2.671 3.529 4.897 3.529s4.194-1.418 4.898-3.53z"/><path d="m60 25h-15.586l9.586-9.586 5.614 5.614 3.332-16.657c.036-.183.054-.366.054-.552 0-1.554-1.265-2.819-2.82-2.819-.186 0-.37.019-.553.055l-16.655 3.331 5.614 5.614-5.586 5.586-5.006-5.007-5.842 5.948c-.869-2.497-2.381-4.753-4.437-6.516l-2.64-2.263-.63.42c-1.799 1.198-3.891 1.832-6.051 1.832h-5.894c-6.342 0-11.5 5.159-11.5 11.5 0 1.43.275 2.816.788 4.14-.489.663-.788 1.475-.788 2.36 0 2.206 1.794 4 4 4h.059c.386 3.472 2.756 6.346 5.946 7.477-4.157 2.171-7.005 6.518-7.005 11.523v3h21.022c.234 5.001 4.364 9 9.421 9h1.113c2.124 0 4.079-.713 5.658-1.901.441 1.111 1.52 1.901 2.786 1.901h16c1.654 0 3-1.346 3-3v-2c0-.771-.301-1.468-.78-2 .48-.532.78-1.229.78-2v-2c0-.771-.301-1.468-.78-2 .48-.532.78-1.229.78-2v-2c0-.771-.301-1.468-.78-2 .48-.532.78-1.229.78-2v-2c0-.771-.301-1.468-.78-2 .48-.532.78-1.229.78-2v-2c0-.771-.301-1.468-.78-2 .48-.532.78-1.229.78-2v-2c0-1.654-1.346-3-3-3zm1 3v2c0 .552-.449 1-1 1h-16c-.551 0-1-.448-1-1v-2c0-.552.449-1 1-1h1v2h2v-2h2v2h2v-2h2v2h2v-2h2v2h2v-2h1c.551 0 1 .448 1 1zm0 6v2c0 .552-.449 1-1 1h-16c-.551 0-1-.448-1-1v-2c0-.552.449-1 1-1h1v2h2v-2h2v2h2v-2h2v2h2v-2h2v2h2v-2h1c.551 0 1 .448 1 1zm0 6v2c0 .552-.449 1-1 1h-16c-.551 0-1-.448-1-1v-2c0-.552.449-1 1-1h1v2h2v-2h2v2h2v-2h2v2h2v-2h2v2h2v-2h1c.551 0 1 .448 1 1zm0 6v2c0 .552-.449 1-1 1h-16c-.064 0-.126.015-.19.019-.129-.235-.246-.476-.396-.701l-.414-.621v-1.697c0-.552.449-1 1-1h1v2h2v-2h2v2h2v-2h2v2h2v-2h2v2h2v-2h1c.551 0 1 .448 1 1zm0 6v2c0 .552-.449 1-1 1h-15.122c.073-.472.122-.951.122-1.443 0-.873-.131-1.729-.364-2.557h.364v2h2v-2h2v2h2v-2h2v2h2v-2h2v2h2v-2h1c.551 0 1 .448 1 1zm-32.352-6.775c-1.235-2.503-3.216-4.501-5.624-5.755 1.241-.442 2.382-1.148 3.341-2.107 1.461-1.461 2.354-3.338 2.577-5.363h.058c2.206 0 4-1.794 4-4 0-.51-.105-.994-.28-1.443l5.271-5.151 4.209 4.208c-.724.549-1.2 1.409-1.2 2.386v2c0 .771.301 1.468.78 2-.376.417-.636.935-.731 1.513-.557-.317-1.192-.513-1.878-.513h-1.707l-1.464 2.197-1.465-2.197h-1.299c-2.336 0-4.236 1.9-4.236 4.236 0 .654.155 1.31.447 1.895l1.399 2.797zm-11.648-1.811.294.294 1.508 8.292h-3.604l1.508-8.292zm0-2.828-3.609 3.608-1.159-3.092c1.445-.699 3.058-1.102 4.768-1.102 1.698 0 3.319.39 4.773 1.088l-1.164 3.106zm12-14.586c1.103 0 2 .897 2 2s-.897 2-2 2zm3.618 15-1.382-2.764c-.155-.309-.236-.655-.236-1 0-1.233 1.003-2.236 2.236-2.236h.229l2.535 3.803 2.535-3.803h.636c1.009 0 1.829.82 1.829 1.828 0 .481-.195.952-.536 1.293l-2.878 2.879zm8.382-.587v1.587c0 .771.301 1.468.78 2-.256.284-.457.615-.59.982l-1.903-2.855zm-2.994-26.992 4.994 4.993 8.414-8.414-4.386-4.386 12.99-2.599c.501-.097.982.298.982.804 0 .055-.005.109-.016.161l-2.599 12.991-4.385-4.385-11 11-4.992-4.992-5.231 5.112c.142-.723.223-1.458.223-2.206 0-.919-.102-1.823-.264-2.712zm-35.006 14.579c0-1.102.897-2 2-2v4c-1.103 0-2-.897-2-2zm2-5.162v1.162c-.555 0-1.084.115-1.565.32-.285-.91-.435-1.853-.435-2.82 0-5.238 4.262-9.5 9.5-9.5h5.894c2.301 0 4.537-.607 6.513-1.763l1.507 1.291c2.914 2.499 4.586 6.134 4.586 9.972 0 .966-.151 1.909-.435 2.82-.481-.205-1.01-.32-1.565-.32v-3c0-1.654-1.346-3-3-3h-1v2h1c.551 0 1 .448 1 1s-.449 1-1 1h-2.951c-3.759 0-7.399-1.103-10.528-3.188-.798-.531-1.726-.812-2.684-.812-2.667 0-4.837 2.17-4.837 4.838zm9 15.162c-3.859 0-7-3.141-7-7v-8.162c0-1.565 1.272-2.838 2.837-2.838.562 0 1.106.165 1.574.477 3.459 2.304 7.483 3.523 11.637 3.523h2.952c.351 0 .687-.061 1-.172v7.171c0 1.87-.728 3.628-2.05 4.95s-3.08 2.051-4.95 2.051zm-8 13c0-3.628 1.773-6.841 4.49-8.846l2.119 5.652 1.612-1.613-1.056 5.807h-7.165zm19.14 1h-4.305l-1.056-5.807 1.612 1.613 2.129-5.677c1.705 1.252 3.04 3.003 3.802 5.085l-.736 1.104c-.746 1.119-1.228 2.373-1.446 3.682zm10.417 9h-1.113c-4.105 0-7.444-3.339-7.444-7.443 0-1.475.432-2.902 1.25-4.129l4.285-6.428h4.93l4.285 6.428c.818 1.227 1.25 2.654 1.25 4.129 0 4.104-3.339 7.443-7.443 7.443zm25.443-1c0 .552-.449 1-1 1h-16c-.551 0-1-.448-1-1v-.653c.553-.709 1.006-1.498 1.341-2.347h.659v2h2v-2h2v2h2v-2h2v2h2v-2h2v2h2v-2h1c.551 0 1 .448 1 1z"/></g></g></svg>