<svg id="Capa_1" enable-background="new 0 0 512 512" height="512" viewBox="0 0 512 512" width="512" xmlns="http://www.w3.org/2000/svg"><g><path d="m347.757 451.78c-2.761 0-5-2.239-5-5v-134.472c-7.491 5.447-16.705 8.668-26.675 8.668h-5.082v39.209c0 3.854-4.176 6.259-7.509 4.325l-44.981-26.101c-1.552-.9-3.467-.9-5.019 0l-44.981 26.101c-3.333 1.934-7.509-.471-7.509-4.325v-39.209h-5.082c-9.97 0-19.184-3.221-26.675-8.668v134.472c0 2.761-2.239 5-5 5h-41.244v33.744c0 2.761 2.239 5 5 5h256c2.761 0 5-2.239 5-5v-33.744z" fill="#ffd15b"/><path d="m163 485.524v-33.744h-40v33.744c0 2.761 2.239 5 5 5h40c-2.761 0-5-2.238-5-5z" fill="#fdb441"/><path d="m258.509 338.408c-1.552-.9-3.467-.9-5.019 0l-19.573 11.357 17.388 47.411c1.603 4.371 7.785 4.371 9.388 0l17.388-47.411z" fill="#fff"/><path d="m284.625 33.636c-9.799-7.614-22.101-12.16-35.471-12.16h-21.779c-42.457 0-76.875 34.418-76.875 76.875v161.385h13.743c2.761 0 5 2.239 5 5v47.572c7.491 5.447 16.705 8.668 26.675 8.668h5.082v-33.342c0-1.662.826-3.215 2.203-4.145l21.911-14.786c7.709 2.905 16.058 4.505 24.783 4.505h12.206c8.725 0 17.073-1.601 24.783-4.505l21.911 14.786c1.377.93 2.203 2.483 2.203 4.145v33.342h5.082c9.97 0 19.184-3.221 26.675-8.668v-47.572c0-2.761 2.239-5 5-5h13.743v-149.225c0-42.457-34.418-76.875-76.875-76.875z" fill="#fe7701"/><g fill="#f46700"><path d="m159.825 156.976h19.757c0 .048-.007.095-.007.143 0-11.191 8.518-20.39 19.425-21.473v-37.295c0-37.572 26.96-68.828 62.586-75.528-4.004-.879-8.163-1.347-12.432-1.347h-21.779c-42.457 0-76.875 34.418-76.875 76.875v60.182c2.925-1.004 6.06-1.557 9.325-1.557z"/><path d="m201 288.917c-1.298-4.224-2-8.709-2-13.358v-24.176c-7.365-7.727-13.002-17.114-16.255-27.56h-22.92c-3.266 0-6.4-.553-9.325-1.557v37.471h13.743c2.761 0 5 2.239 5 5v47.572c7.491 5.447 16.705 8.668 26.675 8.668h5.082z"/></g><path d="m308.797 283.489-21.911-14.786c-7.709 2.905-16.058 4.505-24.783 4.505h-12.206c-8.725 0-17.073-1.601-24.783-4.505l-21.911 14.786c-1.378.93-2.203 2.483-2.203 4.145v72.551c0 3.854 4.176 6.259 7.509 4.325l44.981-26.101c1.552-.9 3.467-.9 5.019 0l44.981 26.101c3.333 1.934 7.509-.471 7.509-4.325v-72.551c.001-1.662-.825-3.215-2.202-4.145z" fill="#eaf6ff"/><path d="m225.114 268.703-21.911 14.786c-1.378.93-2.203 2.483-2.203 4.145v72.551c0 3.854 4.176 6.259 7.509 4.325l17.491-10.15v-66.727c0-1.662.826-3.215 2.203-4.145l15.644-10.557c-6.541-.557-12.826-2.003-18.733-4.228z" fill="#d8ecfe"/><path d="m262.103 273.208h-12.206c-8.01 0-15.698-1.358-22.87-3.824v36.592l28.973 30.976 28.973-30.976v-36.592c-7.172 2.466-14.86 3.824-22.87 3.824z" fill="#fed2a4"/><path d="m252.054 273.208h-2.157c-8.01 0-15.698-1.358-22.87-3.824v36.592l28.973 30.976 16.296-17.422-20.242-21.641z" fill="#ffbd86"/><g fill="#ffe5c2"><path d="m179.575 202.886v-45.768c0-.048.007-.095.007-.143h-19.757c-15.856 0-28.71 12.854-28.71 28.71v9.425c0 15.856 12.854 28.71 28.71 28.71h22.92c-2.06-6.611-3.17-13.643-3.17-20.934z"/><path d="m352.175 156.976h-19.75v45.911c0 7.291-1.11 14.322-3.17 20.935h22.92c15.856 0 28.71-12.854 28.71-28.71v-9.425c0-15.857-12.854-28.711-28.71-28.711z"/></g><g><path d="m295.681 112.592c7.497-5.43 17.747-5.644 25.168-.11 7.026 5.24 11.576 13.616 11.576 23.054v67.35c0 38.837-31.484 70.321-70.321 70.321h-12.206c-38.837 0-70.321-31.484-70.321-70.321v-45.768c0-11.92 9.663-21.582 21.582-21.582h55.848c4.547 0 8.977-1.436 12.659-4.103z" fill="#ffe5c2"/></g><g><g><path d="m213.151 202.886v-45.768c0-11.92 9.663-21.582 21.582-21.582h-33.575c-11.92 0-21.582 9.663-21.582 21.582v45.768c0 38.837 31.484 70.322 70.321 70.322h12.206c3.632 0 7.2-.276 10.685-.807-33.767-5.148-59.637-34.31-59.637-69.515z" fill="#fed2a4"/></g></g><path d="m229.269 216.388c-2.863 0-5.061 2.595-4.535 5.41 2.537 13.558 14.435 23.819 28.729 23.819h5.073c14.294 0 26.192-10.261 28.729-23.819.527-2.814-1.672-5.41-4.535-5.41z" fill="#fff"/><g><g><path d="m164.243 259.736h-139c-2.761 0-5 2.239-5 5v142.633h21.746c6.349 0 11.496 5.147 11.496 11.496v32.915h110.757c2.761 0 5-2.239 5-5v-182.044c.001-2.762-2.238-5-4.999-5z" fill="#d8ecfe"/><path d="m61 446.78v-182.044c0-2.761 2.239-5 5-5h-40.757c-2.761 0-5 2.239-5 5v142.633h21.746c6.349 0 11.496 5.147 11.496 11.496v32.915h12.515c-2.761 0-5-2.238-5-5z" fill="#c4e2ff"/></g><g><path d="m41.989 466h-22.993c-6.349 0-11.496-5.147-11.496-11.496v-35.638c0-6.349 5.147-11.496 11.496-11.496h22.993c6.349 0 11.496 5.147 11.496 11.496v35.638c0 6.349-5.147 11.496-11.496 11.496z" fill="#ffe5c2"/></g><g><path d="m31 454.504v-35.638c0-6.264 5.012-11.347 11.243-11.483-.085-.002-.168-.013-.254-.013h-22.993c-6.349 0-11.496 5.147-11.496 11.496v35.638c0 6.349 5.147 11.496 11.496 11.496h22.993c.086 0 .169-.011.254-.013-6.231-.136-11.243-5.22-11.243-11.483z" fill="#fed2a4"/></g></g><g><g><path d="m458.515 418.865c0-6.349 5.147-11.496 11.496-11.496h21.746v-142.633c0-2.761-2.239-5-5-5h-139c-2.761 0-5 2.239-5 5v182.044c0 2.761 2.239 5 5 5h110.757v-32.915z" fill="#0593fc"/><g><path d="m387 446.78v-182.044c0-2.761 2.239-5 5-5h-44.243c-2.761 0-5 2.239-5 5v182.044c0 2.761 2.239 5 5 5h44.243c-2.761 0-5-2.238-5-5z" fill="#0182fc"/></g><g><path d="m443.43 327.481c-.953 3.706-2.871 7.216-5.773 10.118-5.428 5.428-12.972 7.446-19.976 6.06-.244-1.23-.376-2.477-.409-3.726-.005.006-.01.012-.014.019-5.912-8.361-14.482-13.458-23.443-12.84-14.999 1.035-25.405 17.686-23.241 37.191s16.076 34.477 31.076 33.442h31.217c14.999 1.035 28.912-13.938 31.076-33.442 2.028-18.298-7.004-34.083-20.513-36.822z" fill="#fb2b3a"/><g><g><path d="m404.348 364.302c-1.324-11.934 2.064-22.793 8.324-29.667-5.382-5.118-12.003-7.997-18.857-7.524-14.999 1.035-25.405 17.686-23.241 37.191s16.076 34.477 31.076 33.442h30.879c-13.856-.924-26.158-15.199-28.181-33.442z" fill="#e41f2d"/></g></g><g><ellipse cx="430.699" cy="330.641" fill="#97d729" rx="18.41" ry="9.841" transform="matrix(.707 -.707 .707 .707 -107.65 401.393)"/></g></g></g><g><path d="m493.004 466h-22.993c-6.349 0-11.496-5.147-11.496-11.496v-35.638c0-6.349 5.147-11.496 11.496-11.496h22.993c6.349 0 11.496 5.147 11.496 11.496v35.638c0 6.349-5.147 11.496-11.496 11.496z" fill="#ffe5c2"/></g><g><path d="m482.015 454.504v-35.638c0-6.264 5.012-11.347 11.243-11.483-.085-.002-.168-.013-.254-.013h-22.993c-6.349 0-11.496 5.147-11.496 11.496v35.638c0 6.349 5.147 11.496 11.496 11.496h22.993c.086 0 .169-.011.254-.013-6.231-.136-11.243-5.22-11.243-11.483z" fill="#fed2a4"/></g></g><g><path d="m282.731 208.889h-53.462c-3.617 0-7.017 1.597-9.329 4.382-2.299 2.769-3.238 6.38-2.578 9.907 3.247 17.348 18.429 29.939 36.101 29.939h5.073c17.672 0 32.854-12.592 36.101-29.939.66-3.527-.279-7.139-2.578-9.907-2.311-2.786-5.711-4.382-9.328-4.382zm-24.194 29.228h-5.073c-9.235 0-17.32-5.806-20.405-14.229h45.883c-3.085 8.423-11.171 14.229-20.405 14.229z"/><path d="m226.692 173.621v-18.924c0-4.143-3.358-7.5-7.5-7.5s-7.5 3.357-7.5 7.5v18.924c0 4.143 3.358 7.5 7.5 7.5s7.5-3.357 7.5-7.5z"/><path d="m292.808 147.197c-4.142 0-7.5 3.357-7.5 7.5v18.924c0 4.143 3.358 7.5 7.5 7.5s7.5-3.357 7.5-7.5v-18.924c0-4.142-3.358-7.5-7.5-7.5z"/><path d="m250.395 195.417c1.482 1.668 3.54 2.518 5.608 2.518 1.772 0 3.551-.624 4.98-1.895 3.096-2.752 3.375-7.492.623-10.588l-6.313-7.104 6.564-8.205c2.587-3.234 2.063-7.954-1.171-10.542-3.233-2.587-7.954-2.062-10.542 1.171l-10.517 13.146c-2.283 2.854-2.177 6.938.251 9.668z"/><path d="m94.743 309.014c-2.975 0-5.669 1.759-6.866 4.482l-34.5 78.488c-1.667 3.792.056 8.217 3.848 9.884s8.218-.056 9.884-3.849l8.14-18.518h38.989l8.14 18.518c1.235 2.811 3.985 4.484 6.87 4.484 1.008 0 2.032-.204 3.014-.636 3.792-1.667 5.515-6.092 3.848-9.884l-34.5-78.488c-1.198-2.723-3.892-4.481-6.867-4.481zm12.901 55.488h-25.802l12.901-29.35z"/><path d="m451.626 322.407c.031-2.071-.14-4.161-.552-6.241-.59-2.98-2.92-5.31-5.901-5.9-7.087-1.401-14.311-.163-20.423 3.314-.076-4.077-3.398-7.359-7.493-7.359-4.142 0-7.5 3.357-7.5 7.5v9.61c-5.187-2.775-10.828-4.093-16.459-3.7-7.996.552-15.432 4.485-20.936 11.077-7.327 8.775-10.696 21.321-9.243 34.423 2.508 22.614 18.928 40.166 37.104 40.164.552 0 1.108-.016 1.664-.049h30.74c.557.033 1.11.049 1.664.049 18.174 0 34.596-17.551 37.104-40.164 1.454-13.102-1.916-25.647-9.243-34.422-3.006-3.602-6.59-6.407-10.526-8.302zm-22.582 6.579c2.024-2.025 4.555-3.378 7.271-3.961-.583 2.715-1.937 5.246-3.961 7.271s-4.555 3.378-7.271 3.961c.584-2.716 1.937-5.246 3.961-7.271zm27.443 34.49c-1.645 14.825-11.667 26.821-22.163 26.819-.313 0-.628-.011-.942-.032-.172-.012-.344-.018-.517-.018h-31.216c-.172 0-.345.006-.516.018-10.854.739-21.412-11.52-23.105-26.787-.99-8.927 1.196-17.583 5.848-23.153 2.023-2.424 5.48-5.385 10.456-5.728.305-.021.61-.032.917-.032 5.173 0 10.519 2.989 14.716 8.185.091.79.203 1.58.359 2.368.59 2.98 2.92 5.312 5.901 5.901 1.929.382 3.868.568 5.792.568 7.786 0 15.326-3.063 20.944-8.682 1.717-1.717 3.192-3.615 4.417-5.643 1.336.964 2.424 2.058 3.262 3.062 4.651 5.572 6.838 14.227 5.847 23.154z"/><path d="m499.257 400.948v-79.948c0-4.143-3.358-7.5-7.5-7.5s-7.5 3.357-7.5 7.5v78.869h-14.246c-10.475 0-18.997 8.521-18.997 18.996v25.415h-100.757v-177.045h134v18.765c0 4.143 3.358 7.5 7.5 7.5s7.5-3.357 7.5-7.5v-21.265c0-6.893-5.607-12.5-12.5-12.5h-117.757v-25.075c11.514-6.069 19.385-18.154 19.385-32.049v-9.425c0-13.895-7.871-25.98-19.385-32.05v-43.126c0-45.676-36.48-82.99-81.835-84.337-11.135-7.989-24.223-12.198-38.011-12.198h-21.779c-46.524.001-84.375 37.851-84.375 84.376v55.286c-11.514 6.069-19.385 18.155-19.385 32.05v9.425c0 13.895 7.871 25.979 19.385 32.049v25.075h-12c-4.142 0-7.5 3.357-7.5 7.5s3.358 7.5 7.5 7.5h30.743v177.044h-100.758v-25.415c0-10.475-8.522-18.996-18.997-18.996h-14.245v-132.634h68.257c4.142 0 7.5-3.357 7.5-7.5s-3.358-7.5-7.5-7.5h-70.757c-6.893 0-12.5 5.607-12.5 12.5v136.213c-7.407 2.594-12.743 9.636-12.743 17.917v35.639c0 10.475 8.521 18.996 18.996 18.996h22.993c8.822 0 16.238-6.054 18.364-14.22h55.147v26.244c0 6.893 5.607 12.5 12.5 12.5h173c4.142 0 7.5-3.357 7.5-7.5s-3.358-7.5-7.5-7.5h-170.5v-23.744h33.743c6.893 0 12.5-5.607 12.5-12.5v-121.913c5.235 2.047 10.871 3.28 16.757 3.547v31.771c0 4.457 2.399 8.607 6.262 10.832 3.862 2.223 8.656 2.217 12.512-.02l17.68-10.26 14.311 39.02c1.826 4.979 6.432 8.197 11.736 8.197s9.91-3.218 11.736-8.197l14.311-39.021 17.68 10.26c1.934 1.122 4.103 1.683 6.272 1.683 2.157 0 4.313-.555 6.239-1.663 3.862-2.225 6.262-6.375 6.262-10.832v-31.771c5.886-.267 11.523-1.5 16.757-3.547v121.914c0 6.893 5.607 12.5 12.5 12.5h33.742v23.744h-45.5c-4.142 0-7.5 3.357-7.5 7.5s3.358 7.5 7.5 7.5h48c6.893 0 12.5-5.607 12.5-12.5v-26.244h55.147c2.127 8.166 9.542 14.22 18.364 14.22h22.993c10.475 0 18.996-8.521 18.996-18.996v-35.639c0-8.281-5.336-15.323-12.743-17.917zm-453.272 53.556c0 2.203-1.793 3.996-3.997 3.996h-22.992c-2.204 0-3.996-1.793-3.996-3.996v-35.639c0-2.203 1.792-3.996 3.996-3.996h22.993c2.204 0 3.997 1.793 3.997 3.996v35.639zm327.4-259.393c0 11.695-9.515 21.21-21.21 21.21h-13.417c.763-4.366 1.167-8.854 1.167-13.435v-38.411h12.25c11.695 0 21.21 9.516 21.21 21.211zm-215.385-96.76c0-38.254 31.122-69.375 69.375-69.375h21.779c11.285 0 21.959 3.659 30.87 10.582 1.316 1.023 2.935 1.578 4.602 1.578 38.253 0 69.375 31.121 69.375 69.375v39.011c-.605-.03-1.213-.046-1.825-.046h-12.25v-13.939c0-11.387-5.455-22.252-14.593-29.066-10.014-7.467-23.698-7.449-34.05.048l-26.016 18.842c-2.418 1.751-5.275 2.677-8.261 2.677h-55.848c-13.391 0-24.691 9.101-28.056 21.439h-13.276c-.612 0-1.22.016-1.825.046v-51.172zm104.103 167.357h-12.206c-34.64 0-62.822-28.182-62.822-62.821v-45.768c0-7.766 6.317-14.083 14.083-14.083h55.848c6.166 0 12.065-1.912 17.059-5.528l26.016-18.842c4.934-3.572 11.63-3.643 16.285-.171 5.439 4.057 8.56 10.268 8.56 17.041v67.351c-.001 34.639-28.183 62.821-62.823 62.821zm15.37 13.469v23.838l-21.473 22.958-21.473-22.958v-23.838c4.971 1 10.109 1.531 15.37 1.531h12.206c5.261 0 10.399-.531 15.37-1.531zm-138.858-93.49c0-11.695 9.515-21.211 21.21-21.211h12.25v38.411c0 4.581.404 9.069 1.167 13.435h-13.417c-11.695 0-21.21-9.515-21.21-21.21zm60.392 91.585c-3.449 2.328-5.507 6.201-5.507 10.361v25.756c-6.085-.385-11.782-2.211-16.757-5.142v-43.513c0-6.893-5.607-12.5-12.5-12.5h-6.243v-20.96c.605.03 1.213.046 1.825.046h17.641c6.358 16.13 17.951 29.645 32.681 38.434zm9.493 78.572v-66.881l11.027-7.442v24.454c0 1.902.723 3.733 2.022 5.123l22.537 24.095zm47.5 32.349-12.873-35.1 12.873-7.47 12.873 7.47zm47.5-32.349-35.586-20.65 22.537-24.095c1.299-1.39 2.022-3.221 2.022-5.123v-24.454l11.027 7.442zm31.757-91.109v43.513c-4.975 2.931-10.672 4.756-16.757 5.142v-25.756c0-4.16-2.059-8.033-5.508-10.361l-11.139-7.517c14.73-8.789 26.322-22.304 32.681-38.434h17.641c.612 0 1.22-.016 1.825-.046v20.96h-6.243c-6.892-.001-12.5 5.607-12.5 12.499zm161.743 189.769c0 2.203-1.792 3.996-3.996 3.996h-22.993c-2.204 0-3.997-1.793-3.997-3.996v-35.639c0-2.203 1.793-3.996 3.997-3.996h22.993c2.204 0 3.996 1.793 3.996 3.996z"/></g></g></svg>