<svg id="Capa_1" enable-background="new 0 0 512.242 512.242" height="512" viewBox="0 0 512.242 512.242" width="512" xmlns="http://www.w3.org/2000/svg"><g><g><g fill="#ffe02f"><path d="m183.275 97.832c3.972-3.871 1.78-10.617-3.708-11.414l-32.29-4.692c-2.18-.317-4.064-1.685-5.038-3.661l-14.441-29.26c-2.455-4.973-9.546-4.973-12.001 0l-14.441 29.26c-.975 1.975-2.859 3.344-5.038 3.661l-32.29 4.692c-5.489.797-7.68 7.543-3.708 11.414l23.365 22.775c1.577 1.537 2.297 3.753 1.925 5.923l-5.516 32.16c-.938 5.467 4.8 9.635 9.709 7.054l28.881-15.184c1.949-1.025 4.279-1.025 6.228 0l28.881 15.184c4.909 2.581 10.647-1.587 9.709-7.054l-5.516-32.16c-.372-2.17.348-4.386 1.924-5.923z"/><path d="m450.11 97.832c3.972-3.871 1.78-10.617-3.708-11.414l-32.29-4.692c-2.18-.317-4.064-1.685-5.038-3.661l-14.441-29.26c-2.455-4.973-9.546-4.973-12.001 0l-14.441 29.26c-.975 1.975-2.859 3.344-5.038 3.661l-32.29 4.692c-5.489.797-7.68 7.543-3.708 11.414l23.365 22.775c1.577 1.537 2.297 3.753 1.925 5.923l-5.516 32.16c-.938 5.467 4.8 9.635 9.709 7.054l28.881-15.184c1.949-1.025 4.279-1.025 6.228 0l28.881 15.184c4.909 2.581 10.647-1.587 9.709-7.054l-5.516-32.16c-.372-2.17.348-4.386 1.924-5.923z"/><path d="m335.701 76.591c5.2-5.068 2.331-13.899-4.855-14.943l-42.274-6.143c-2.854-.414-5.32-2.207-6.596-4.792l-18.906-38.307c-3.214-6.511-12.498-6.511-15.712 0l-18.906 38.307c-1.276 2.586-3.743 4.378-6.596 4.792l-42.274 6.143c-7.186 1.044-10.055 9.875-4.855 14.943l30.589 29.817c2.065 2.013 3.007 4.913 2.52 7.754l-7.222 42.104c-1.228 7.157 6.284 12.614 12.712 9.235l37.811-19.879c2.552-1.342 5.602-1.342 8.154 0l37.811 19.879c6.427 3.379 13.938-2.078 12.712-9.235l-7.222-42.104c-.487-2.841.455-5.742 2.519-7.754z"/></g><g><path d="m122 149.804 3.992-23.274c.372-2.17-.348-4.386-1.925-5.923l-23.365-22.776c-3.972-3.871-1.78-10.617 3.708-11.414l32.29-4.692c2.179-.317 4.064-1.685 5.038-3.661l.25-.506-14.191-28.755c-2.455-4.973-9.547-4.973-12.001 0l-14.441 29.26c-.975 1.975-2.859 3.344-5.038 3.661l-32.29 4.692c-5.489.797-7.68 7.543-3.708 11.414l23.365 22.776c1.577 1.537 2.297 3.753 1.925 5.923l-5.516 32.16c-.938 5.467 4.8 9.635 9.709 7.054l28.881-15.184c1.036-.544 2.18-.79 3.317-.755z" fill="#fbc700"/></g><g><path d="m388.835 149.804 3.992-23.274c.372-2.17-.348-4.386-1.925-5.923l-23.365-22.776c-3.972-3.871-1.78-10.617 3.708-11.414l32.29-4.692c2.179-.317 4.064-1.685 5.039-3.661l.25-.505-14.191-28.755c-2.455-4.973-9.547-4.973-12.001 0l-14.441 29.26c-.975 1.975-2.859 3.344-5.038 3.661l-32.29 4.692c-5.489.797-7.68 7.543-3.708 11.414l23.365 22.776c1.577 1.537 2.297 3.753 1.925 5.923l-5.516 32.16c-.938 5.467 4.8 9.635 9.709 7.054l28.881-15.184c1.035-.545 2.179-.791 3.316-.756z" fill="#fbc700"/></g><g><path d="m248.221 114.163c.487-2.841-.455-5.742-2.52-7.754l-30.589-29.817c-5.2-5.068-2.331-13.899 4.855-14.943l42.274-6.143c2.853-.414 5.32-2.207 6.596-4.792l6.57-13.312-12.337-24.996c-3.214-6.511-12.498-6.511-15.712 0l-18.906 38.307c-1.276 2.586-3.743 4.378-6.596 4.792l-42.274 6.143c-7.186 1.044-10.054 9.875-4.855 14.943l30.589 29.817c2.065 2.013 3.007 4.913 2.52 7.754l-7.222 42.104c-1.228 7.157 6.284 12.614 12.712 9.235l28.674-15.074z" fill="#fbc700"/></g><g><g><path d="m472.183 351.005c-.018-.01-.037-.019-.055-.028-3.113-1.61-5.016-4.875-5.016-8.379v-47.618c0-36.657-29.848-66.341-66.57-66.073-36.434.266-65.58 30.465-65.58 66.9v46.79c0 3.504-1.904 6.77-5.016 8.379-.019.01-.038.02-.057.029-9.985 5.148-13.121 34.099 4.87 44.336l3.473 2.055h125.25l3.035-2.344c17.67-10.46 15.557-38.947 5.666-44.047z" fill="#b06c6c"/><path d="m360.766 351.005c.019-.01.038-.02.057-.029 3.113-1.61 5.016-4.875 5.016-8.379v-46.79c0-31.311 21.531-57.997 50.708-65.058-5.129-1.234-10.487-1.882-16.005-1.842-36.434.266-65.58 30.465-65.58 66.9v46.79c0 3.504-1.904 6.77-5.016 8.379-.019.01-.038.02-.057.029-9.985 5.148-13.121 34.099 4.87 44.336l3.473 2.055h30.877l-3.473-2.055c-17.99-10.237-14.854-39.188-4.87-44.336z" fill="#865151"/><path d="m482.743 401.336c-1.702-.659-22.27-8.625-38.172-14.783l-4.964 4.093h-19.44l-19.164 55.016-18.799-55.016h-21.084l-3.65-4.11c-16.098 6.241-37.775 14.645-38.174 14.8-9.382 3.861-21.943 16.009-21.943 34.036v31.048c0 5.778 4.684 10.462 10.462 10.462h186.408c5.778 0 10.462-4.685 10.462-10.463v-31.048c.001-15.524-9.938-29.095-21.942-34.035z" fill="#dbedff"/><g><path d="m324.353 467.42v-56.466c0-4.514.788-8.66 2.116-12.399-4.246 1.646-7.032 2.726-7.173 2.781-9.382 3.861-21.943 16.009-21.943 34.036v31.048c0 5.778 4.684 10.462 10.462 10.462h22.559c-3.554-1.672-6.021-5.274-6.021-9.462z" fill="#b5dcff"/></g><path d="m423.835 377.296c-.24-.52-.378-1.092-.38-1.69l-.011-16.593c-6.301 4.301-13.881 6.819-22.015 6.792-.456-.001-.907-.014-1.357-.028v77.159l.931 2.726 22.937-65.849z" fill="#f1afa2"/><path d="m401.072 365.797c-8.697-.096-16.318-2.594-22.512-6.705v16.489c0 .678-.137 1.238-.356 1.712v1.644l22.8 66.724.069-.197v-79.667z" fill="#e99c8c"/><path d="m438.969 300.809h-8.879c-1.25 0-1.344-.032-8.274-.62-9.586-.813-17.851-8.088-20.144-17.523-.073-.303-.34-.52-.652-.52-.313 0-.579.217-.653.52-2.041 8.42-8.794 15.016-16.895 17.004v27.902c0 17.568 11.054 33.905 28.832 39.683 16.485-4.811 28.613-20.306 28.613-38.307v-26.19c.001-1.076-.871-1.949-1.948-1.949z" fill="#f1afa2"/><path d="m384.042 327.697v-28.188c-1.314.361-2.662.614-4.038.719.562-.043-7.09.58-8.451.58h-8.483c-1.076 0-1.949.873-1.949 1.949v26.717c0 20.426 15.906 39.106 40.031 39.328 4.242.039 8.331-.621 12.173-1.858-18.027-5.369-29.283-21.685-29.283-39.247z" fill="#e99c8c"/><path d="m424.186 421.172c2.295-2.427 5.708-3.449 8.959-2.682l12.395 2.924c2.185.515 4.172-1.398 3.739-3.601l-4.708-31.26c-9.611-3.722-17.518-6.784-18.523-7.174-1-.387-1.78-1.146-2.213-2.084l-22.799 68.366z" fill="#60b9fe"/><path d="m356.499 421.413 12.395-2.924c3.251-.767 6.665.255 8.959 2.682l23.15 24.49-22.8-68.368c-.783 1.699-2.671 2.24-3.594 2.598-.329.128-7.795 3.022-17.139 6.645l-4.711 31.276c-.431 2.203 1.556 4.117 3.74 3.601z" fill="#60b9fe"/><g fill="#1ca8ff"><path d="m430.7 418.244 2.457-36.112c-3.888-1.506-6.553-2.538-7.108-2.753-1-.387-1.78-1.146-2.213-2.084l-22.799 68.366 23.15-24.49c1.721-1.821 4.072-2.851 6.513-2.927z"/><path d="m370.129 381.629c-3.123 1.211-7.61 2.95-12.659 4.908l-4.71 31.276c-.433 2.202 1.555 4.116 3.739 3.601l12.395-2.924c1.246-.294 2.514-.321 3.735-.111z"/></g></g><g><path d="m135.357 361.858h-44.714l-2.438 2.024v25.531l1.23 3.874 12.798 14.939h24.357l13.209-13.558v-3.845-26.92z" fill="#ffb1a0"/><path d="m112.694 361.858h-22.051l-2.438 2.024v25.531l1.23 3.874 12.798 14.939h10.461z" fill="#f79480"/><path d="m146.075 277.071-24.866 18.65h-22.535v31.115c0 19.052 11.025 35.561 27.021 43.532 19.106-4.922 33.264-22.299 33.264-42.92v-29.024z" fill="#ffcebe"/><path d="m114.643 371.763c4.127 0 8.117-.582 11.909-1.645-16.161-7.659-27.371-24.118-27.371-43.157v-31.241h-26.324l-3.812 3.055v28.673c0 23.161 18.148 44.315 45.598 44.315z" fill="#ffb1a0"/><path d="m156.08 240.441c-4.234.326-8.119-2.337-8.934-6.504-1.373-7.019-4.848-13.985-18.422-13.985-.759 0-46.332 0-47.097 0-17.285 0-31.297 14.012-31.297 31.297v34.348c0 7.278 5.9 13.178 13.178 13.178h53.453c11.956 0 22.34-6.707 27.608-16.562.408-.764 1.568-.466 1.568.401 0 8.889 7.273 16.161 16.161 16.161 4.659 0 8.471-3.812 8.471-8.471v-35.844c.001-8.444-7.367-14.582-14.689-14.019z" fill="#7b6c79"/><g><path d="m83.139 285.597v-34.348c0-17.285 14.012-31.297 31.297-31.297-13.683 0-32.323 0-32.81 0-17.285 0-31.297 14.012-31.297 31.297v34.348c0 7.278 5.9 13.178 13.178 13.178h32.81c-7.278 0-13.178-5.899-13.178-13.178z" fill="#665e68"/></g><path d="m194.283 403.768c-6.218-2.408-12.628-4.89-18.597-7.202l-11.997 2.419-48.836 22.996-53.997-25.53h-6.976l-18.572 7.253c-16.804 6.563-27.865 22.758-27.865 40.798v21.556c0 5.978 4.846 10.824 10.824 10.824h77.117l3.288-2.175h32.81l2.838 2.175h77.117c5.978 0 10.824-4.846 10.824-10.824v-21.447c.001-18.086-11.113-34.311-27.978-40.843z" fill="#dbedff"/><path d="m127.101 405.46-1.411-.969c-7.527 0-14.148 0-21.675 0l-1.262.969-8.404 14.506v1.242l8.369 18.262 1.34.959h22.136l.793-.959 8.369-18.262v-1.502z" fill="#ffe02f"/><path d="m152.515 387.61c-3.697-1.462-7.889-.79-10.949 1.747l-13.928 11.55c-2.179 1.807-2.632 4.972-1.048 7.318l9.177 13.591c1.821 2.697 5.571 3.234 8.076 1.157l31.844-26.406c-12.607-4.883-19.405-7.466-23.172-8.957z" fill="#b5dcff"/><path d="m102.067 400.908-14.13-11.717c-3.056-2.535-7.242-3.208-10.936-1.753-3.878 1.528-10.751 4.181-23.122 9.012l31.983 26.523c2.505 2.077 6.255 1.54 8.076-1.157l9.177-13.591c1.585-2.345 1.131-5.51-1.048-7.317z" fill="#b5dcff"/><path d="m126.987 439.471c-7.659 0-16.61 0-24.269 0l-7.334 37.411h38.937z" fill="#ffe02f"/><path d="m126.987 439.471c-7.659 0-16.61 0-24.269 0l-7.334 37.411h24.946l6.995-35.684z" fill="#fbc700"/><path d="m36.266 427.77c0-12.801 10.375-25.27 15.198-30.376l-16.155 6.309c-16.804 6.563-27.865 22.758-27.865 40.798v21.556c0 5.978 4.846 10.824 10.824 10.824h17.998c0-16.86 0-39.315 0-49.111z" fill="#b5dcff"/></g><g><path d="m276.569 389.501h-44.714l-2.438 2.024v25.53l1.23 3.874 12.798 14.939h24.357l13.209-13.558v-3.845-26.92z" fill="#ffcebe"/><path d="m253.906 389.501h-22.051l-2.438 2.024v25.53l1.23 3.874 12.798 14.939h10.461z" fill="#ffb1a0"/><path d="m287.287 304.713-24.866 18.65h-22.534v31.115c0 19.052 11.025 35.561 27.021 43.532 19.106-4.922 33.264-22.299 33.264-42.92v-29.024z" fill="#ffdecf"/><path d="m255.855 399.405c4.127 0 8.117-.582 11.909-1.645-16.161-7.659-27.371-24.118-27.371-43.157v-31.241h-26.324l-3.812 3.055v28.673c0 23.161 18.148 44.315 45.598 44.315z" fill="#ffcebe"/><path d="m297.292 268.084c-4.234.326-8.119-2.337-8.934-6.504-1.373-7.019-4.848-13.985-18.422-13.985-.759 0-46.332 0-47.097 0-17.285 0-31.297 14.012-31.297 31.297v34.348c0 7.278 5.9 13.178 13.178 13.178h53.453c11.956 0 22.34-6.707 27.608-16.562.408-.764 1.568-.466 1.568.401 0 8.889 7.273 16.161 16.161 16.161 4.659 0 8.471-3.812 8.471-8.471v-35.844c0-8.445-7.367-14.582-14.689-14.019z" fill="#fbc56c"/><g><path d="m224.351 313.24v-34.348c0-17.285 14.012-31.297 31.297-31.297-13.683 0-32.323 0-32.81 0-17.285 0-31.297 14.012-31.297 31.297v34.348c0 7.278 5.9 13.178 13.178 13.178h32.81c-7.278 0-13.178-5.9-13.178-13.178z" fill="#daac5d"/></g><path d="m335.495 431.41c-6.218-2.408-12.627-4.89-18.597-7.202l-11.997 2.419-48.836 22.996-53.997-25.53h-6.975l-18.572 7.253c-16.804 6.563-27.865 22.758-27.865 40.798v21.556c0 5.978 4.846 10.824 10.824 10.824h77.117l3.288-2.175h32.81l2.838 2.175h77.116c5.978 0 10.824-4.846 10.824-10.824v-21.447c.001-18.086-11.113-34.311-27.978-40.843z" fill="#dbedff"/><path d="m268.313 433.103-1.411-.969c-7.527 0-14.148 0-21.675 0l-1.262.969-8.404 14.506v1.242l8.369 18.262 1.34.959h22.136l.793-.959 8.369-18.262v-1.502z" fill="#ff3581"/><path d="m293.727 415.253c-3.697-1.462-7.889-.79-10.949 1.747l-13.928 11.55c-2.179 1.807-2.632 4.972-1.048 7.318l9.177 13.59c1.821 2.697 5.571 3.234 8.076 1.157l31.844-26.406c-12.607-4.883-19.405-7.466-23.172-8.956z" fill="#b5dcff"/><path d="m243.279 428.55-14.13-11.717c-3.056-2.535-7.242-3.208-10.936-1.753-3.878 1.528-10.751 4.181-23.122 9.012l31.983 26.523c2.505 2.077 6.255 1.54 8.076-1.157l9.177-13.59c1.585-2.346 1.131-5.511-1.048-7.318z" fill="#b5dcff"/><path d="m268.199 467.113c-7.659 0-16.61 0-24.269 0l-7.334 37.411h38.937z" fill="#ff3581"/><path d="m268.199 467.113c-7.659 0-16.61 0-24.269 0l-7.334 37.411h24.946l6.995-35.684z" fill="#e50255"/><path d="m177.478 455.413c0-12.801 10.375-25.27 15.198-30.376l-16.155 6.309c-16.804 6.563-27.865 22.758-27.865 40.798v21.556c0 5.978 4.846 10.824 10.824 10.824h17.998c0-16.861 0-39.316 0-49.111z" fill="#b5dcff"/></g></g></g><g><path d="m55.14 103.3 23.06 22.479-5.443 31.741c-1.988 11.589 10.185 20.428 20.591 14.96l28.505-14.986 28.506 14.986c10.414 5.474 22.575-3.391 20.591-14.961l-5.444-31.741 23.062-22.479h-.001c.468-.456.898-.94 1.292-1.444l10.28 10.02c.297.29.433.708.363 1.116l-7.222 42.104c-2.279 13.276 11.671 23.411 23.594 17.142l37.809-19.878c.369-.193.809-.194 1.176 0l37.811 19.879c11.904 6.257 25.874-3.839 23.594-17.142l-7.222-42.103c-.069-.41.066-.828.362-1.116l10.28-10.02c.395.504.824.987 1.292 1.443l23.061 22.479-5.444 31.741c-1.986 11.589 10.184 20.428 20.592 14.96l28.506-14.986 28.505 14.986c10.414 5.474 22.575-3.391 20.591-14.961l-5.444-31.741 23.057-22.478c8.42-8.206 3.769-22.517-7.864-24.207l-31.87-4.631-14.252-28.88c-5.205-10.542-20.251-10.541-25.452 0l-14.253 28.879-17.174 2.496c4.238-9.592-1.68-21.055-12.554-22.634l-42.275-6.144c-.409-.059-.764-.317-.947-.689l-18.907-38.306c-5.967-12.093-23.202-12.077-29.163 0l-18.905 38.307c-.184.372-.538.63-.949.69l-42.273 6.143c-10.875 1.579-16.792 13.043-12.554 22.634l-17.175-2.496-14.252-28.88c-5.205-10.542-20.251-10.541-25.452 0l-14.255 28.88-31.869 4.631c-11.637 1.691-16.282 16.002-7.865 24.207zm309.145-14.054c4.624-.671 8.619-3.574 10.687-7.764l13.716-27.791 13.717 27.793c2.069 4.189 6.064 7.091 10.686 7.761l30.668 4.457-22.192 21.633c-3.345 3.261-4.871 7.957-4.081 12.561l5.239 30.546-27.432-14.422c-4.134-2.174-9.073-2.175-13.208 0l-27.432 14.422 5.239-30.546c.789-4.604-.737-9.299-4.082-12.561l-22.191-21.632zm-183.568-20.078 42.272-6.143c5.297-.769 9.875-4.094 12.245-8.895l18.905-38.308c.471-.952 1.791-.952 2.261 0l18.906 38.308c2.37 4.801 6.947 8.126 12.243 8.894l42.274 6.144c1.051.152 1.46 1.41.698 2.15l-30.593 29.819c-3.831 3.737-5.578 9.117-4.673 14.392l7.221 42.103c.181 1.041-.884 1.824-1.829 1.33l-37.813-19.88c-4.736-2.489-10.395-2.49-15.133.001l-37.81 19.878c-.941.494-2.008-.281-1.831-1.329l7.222-42.104c.905-5.275-.843-10.655-4.676-14.393l-30.59-29.817c-.755-.738-.356-1.995.701-2.15zm-83.267 20.078c4.624-.671 8.619-3.574 10.687-7.764l13.716-27.792 13.716 27.791c2.067 4.19 6.063 7.093 10.687 7.764l30.668 4.457-22.192 21.633c-3.345 3.261-4.871 7.957-4.081 12.561l5.239 30.546-27.432-14.422c-4.134-2.174-9.073-2.175-13.208 0l-27.432 14.422 5.239-30.546c.789-4.604-.737-9.299-4.082-12.561l-22.192-21.633z"/><path d="m485.654 394.497c-.049-.02-.098-.04-.146-.059l-5.222-2.022c11.315-16.08 8.285-41.331-4.656-48.005-.584-.302-.962-.976-.962-1.717v-4.653c0-4.142-3.357-7.5-7.5-7.5s-7.5 3.358-7.5 7.5v4.653c0 6.384 3.476 12.147 9.025 15.017.02.01.09.046.108.056 3.651 1.882 6.675 19.846-3.322 28.914-19.685-7.624-15.589-6.037-34.471-13.35l-.006-7.473c10.951-8.978 17.472-22.324 17.472-36.675v-28.279c0-4.142-3.357-7.5-7.5-7.5-13.819 0-9.801.146-18.468-.593-6.282-.533-11.955-5.504-13.492-11.831-2.021-8.272-13.84-8.313-15.88.014-3.421 14.104-17.813 12.41-31.958 12.41-4.143 0-7.5 3.358-7.5 7.5v28.666c0 14.822 6.843 27.944 17.439 36.421v7.328c-26.773 10.379-6.009 2.33-35.282 13.678-6.15-5.436-6.507-14.252-6.448-17.086.149-7.259 2.883-11.57 3.914-12.103.029-.015.116-.06.146-.075 5.596-2.893 9.072-8.657 9.072-15.042v-46.79c0-52.689 62.966-79.004 99.842-42.398 11.161 11.08 17.308 25.844 17.308 41.571v7.965c0 4.142 3.357 7.5 7.5 7.5s7.5-3.358 7.5-7.5v-7.965c0-19.754-7.721-38.298-21.74-52.216-46.668-46.328-125.409-12.185-125.409 53.043v46.79c0 .741-.377 1.415-1.011 1.742-7.122 3.673-11.879 13.551-12.119 25.167-.182 8.831 2.189 16.865 6.618 23.144-3.799 1.473-13.748 4.346-22.498 16.399-.731-.285-1.39-.542-1.967-.771-2.579-1.02-5.302-1.416-7.975-1.238v-11.754c11.681-9.509 19.159-23.991 19.159-40.192v-21.742c6.792-1.837 11.811-8.037 11.811-15.402v-35.844c0-12.905-11.181-22.393-22.765-21.497-.439.035-.932-.131-.998-.466-2.602-13.301-11.276-20.045-25.783-20.045h-5.674c-4.143 0-7.5 3.358-7.5 7.5s3.357 7.5 7.5 7.5h5.674c8.851 0 10.126 3.138 11.063 7.923 1.52 7.774 8.761 13.164 16.869 12.544 3.008-.234 6.614 2.511 6.614 6.541v35.844c0 .518-.453.971-.971.971-4.81 0-8.662-3.973-8.662-8.662 0-3.958-2.771-7.391-6.721-8.172-3.6-.714-7.228.997-8.961 4.235-4.154 7.771-12.199 12.598-20.994 12.598h-47.915-5.538c-3.131 0-5.678-2.547-5.678-5.678v-34.348c0-13.122 10.675-23.797 23.797-23.797h6.423c4.143 0 7.5-3.358 7.5-7.5s-3.357-7.5-7.5-7.5h-6.423c-21.393 0-38.797 17.404-38.797 38.797v34.348c0 10.74 8.232 19.586 18.716 20.578v21.272c0 14.923 6.827 30.139 19.159 40.188v11.557c-2.177.033-4.363.444-6.454 1.268-.227.089-.465.183-.713.28-5.037-5.043-11.077-9.022-17.758-11.609-21.736-8.417-41.718-16.138-41.718-16.138-2.579-1.02-5.302-1.416-7.975-1.238v-11.759c11.681-9.509 19.159-23.991 19.159-40.192v-21.742c6.792-1.837 11.811-8.037 11.811-15.402v-35.844c0-12.914-11.183-22.394-22.765-21.497-.426.034-.933-.131-.999-.465-2.6-13.301-11.274-20.046-25.782-20.046h-47.094c-21.393 0-38.797 17.404-38.797 38.797v34.348c0 10.74 8.232 19.586 18.716 20.578v21.272c0 14.923 6.827 30.139 19.159 40.188v11.557c-2.177.033-4.362.444-6.453 1.268 0 0-12.661 4.927-41.672 16.257-19.825 7.746-32.636 26.502-32.636 47.787v21.556c0 10.104 8.221 18.324 18.324 18.324h122.888v9.318c0 10.104 8.221 18.324 18.324 18.324h193.17c10.104 0 18.324-8.22 18.324-18.324v-9.318h123.249c9.905 0 17.963-8.058 17.963-17.963v-31.048c0-17.679-10.933-34.527-26.588-40.971zm-44.686 18.216-6.044-1.426c-5.771-1.363-11.876.433-15.992 4.684l9.224-27.657 9.704 3.758zm-39.892 9.385-15.035-45.083c.103-1 .075-1.268.075-2.998 9.807 3.143 20.513 3.172 29.893.083.001 1.284-.033 1.918.087 2.956zm-36.781-30.045c3.956-1.534 7.353-2.85 9.695-3.759l9.229 27.676c-4.125-4.259-10.237-6.042-15.991-4.684l-6.045 1.426zm4.382-83.647c6.704 0 8.147-.312 11.956-.602h-.001c7.991-.612 15.314-4.536 20.454-10.468 8.78 10.104 19.333 11.07 32.389 11.07v20.779c0 17.651-14.436 32.217-31.858 32.217-.035 0-.071 0-.105 0-19.649-.065-32.834-14.961-32.834-31.83v-21.166zm-46.534 99.989c1.125-.436 13.368-5.183 26.043-10.097l-2.768 18.376c-1.318 7.488 5.469 13.881 12.859 12.135l12.396-2.924c.645-.152 1.33.053 1.786.536l21.128 22.35v20.708h-22.639c-1.095-19.502-13.687-37.595-32.688-44.965-.001 0-.001 0-.001 0-20.458-7.923-21.245-8.228-25.02-9.685 3.045-3.217 6.358-5.373 8.904-6.434zm-60.781 31.336c.24.387 6.434 9.546 6.689 9.923l-4.609 10.056h-14.644l-4.608-10.056c.255-.378 6.448-9.536 6.688-9.923zm-15.596 57.39 4.394-22.411h11.924l4.394 22.411zm45.258-74.797c2.309.914 5.733 2.23 11.298 4.372l-20.304 16.837c-1.084-1.605-6.04-8.943-6.933-10.266 5.945-4.93 5.826-4.831 12.536-10.396.954-.79 2.257-1 3.403-.547zm-73.211-67.136v-21.173h40.415c9.707 0 18.962-3.628 26.019-10.014 2.188 3.087 5.098 5.625 8.479 7.375v23.811c0 20.37-16.621 36.814-36.815 36.814-23.669.001-38.098-18.532-38.098-36.813zm55.754 48.715v11.136l-9.448 7.835c-.005.004-.01.01-.016.014-.714.595-1.464 1.387-1.816 1.843h-12.332c-.006-.008-.013-.014-.02-.022-.569-.7-1.175-1.304-1.799-1.822-.005-.004-.009-.009-.014-.013l-11.15-9.246v-9.814c11.446 4.087 24.894 4.346 36.595.089zm-49.148 18.801s12.375 10.262 12.737 10.563l-6.933 10.267-20.475-16.979c8.09-3.156 9.213-3.588 11.27-4.399 1.146-.452 2.449-.242 3.401.548zm-25.514-8.03c-3.828 1.491-3.977 1.55-24.305 9.49-19.471 7.596-32.202 24.398-33.315 45.315h-.733l-5.683-28.983 4.009-8.746c3.537.415 7.146-.7 9.809-2.906l28.455-23.596 14.49 5.612c2.569.995 5.009 2.277 7.273 3.814zm-78.755-2.586c.25.403 6.402 9.498 6.689 9.923l-4.609 10.056h-14.644l-4.608-10.056.108-.16c.255-.377 6.342-9.378 6.581-9.763zm-15.596 57.391 4.394-22.411h11.924l4.394 22.411zm45.259-74.797c2.692 1.065 7.581 2.939 11.298 4.372l-20.304 16.837c-.916-1.356-5.945-8.803-6.933-10.266 8.274-6.862 7.254-6.016 12.536-10.396.953-.791 2.26-.999 3.403-.547zm-91.927-108.987v-34.348c0-13.122 10.675-23.797 23.797-23.797h47.097c8.851 0 10.126 3.137 11.062 7.925 1.521 7.774 8.788 13.165 16.87 12.542 3.001-.234 6.614 2.505 6.614 6.541v35.844c0 .518-.453.971-.971.971-4.802 0-8.662-3.963-8.662-8.661 0-3.831-2.596-7.157-6.313-8.088-3.641-.912-7.544.744-9.368 4.151-4.154 7.771-12.199 12.598-20.994 12.598-6.631 0-46.66 0-53.453 0-3.132-.001-5.679-2.547-5.679-5.678zm18.716 41.85v-21.173h40.415c9.713 0 18.969-3.631 26.019-10.014 2.188 3.087 5.098 5.625 8.479 7.375v23.811c0 20.36-16.602 36.815-36.815 36.815-23.33.001-38.098-18.197-38.098-36.814zm38.097 51.815c5.704 0 11.887-.999 17.656-3.099v11.135l-9.448 7.836c-.733.608-1.488 1.416-1.832 1.856h-12.332c-.673-.81-1.236-1.362-1.832-1.856l-11.15-9.247v-9.814c6.053 2.162 12.588 3.189 18.938 3.189zm-34.892 15.153c1.145-.45 2.449-.242 3.399.548 4.845 4.017 7.216 5.984 12.738 10.563l-6.933 10.267c-7.612-6.312-4.9-4.064-20.479-16.983 5.231-2.035 8.84-3.435 11.275-4.395zm-64.807 71.642v-21.556c0-15.061 9.064-28.333 23.093-33.812l14.457-5.646c10.971 9.098 17.636 14.625 28.582 23.703 2.781 2.306 6.425 3.308 9.809 2.906l4.008 8.746-5.682 28.983h-70.943c-1.833 0-3.324-1.491-3.324-3.324zm141.212 27.642c0-5.441 0-10.437 0-21.556 0-14.374 8.073-27.945 24.159-34.228l13.396-5.225 28.575 23.697c2.566 2.129 6.159 3.333 9.811 2.907l4.008 8.746-5.682 28.983h-70.943c-1.833 0-3.324-1.491-3.324-3.324zm199.818 0c0 1.833-1.491 3.324-3.324 3.324h-70.943l-5.682-28.983 4.008-8.746c3.661.427 7.237-.774 9.809-2.907l28.454-23.596 14.491 5.612c13.808 5.348 23.188 18.92 23.188 33.849-.001 7.77-.001 12.576-.001 21.447zm141.212-27.28c0 1.634-1.329 2.963-2.963 2.963h-85.692v-20.732l21.105-22.327.001-.001c.454-.482 1.139-.688 1.786-.534l12.394 2.923c7.41 1.752 14.173-4.664 12.86-12.134l-2.766-18.366c4.034 1.562 2.511.972 26.045 10.087 8.573 3.565 17.229 13.989 17.229 27.072v31.049z"/></g></g></svg>