<svg id="Layer_1" enable-background="new 0 0 470 470" height="512" viewBox="0 0 470 470" width="512" xmlns="http://www.w3.org/2000/svg"><g><g><g><g><path d="m457.475 248.371c-4.333-8.61-4.341-18.799-.034-27.422 15.98-31.999 15.654-72.474-4.287-107.267-21.874-38.165-61.426-59.156-100.407-57.444-9.922.436-19.497-4.082-25.505-11.993-19.843-26.128-53.825-43.356-92.418-43.356-38.682 0-72.73 17.308-92.553 43.536-6.003 7.943-15.591 12.483-25.538 12.08-38.87-1.573-78.253 19.408-100.062 57.46-20 34.896-20.27 75.509-4.145 107.552 4.333 8.61 4.341 18.799.034 27.422-15.98 31.999-15.654 72.474 4.287 107.267 21.874 38.165 61.426 59.156 100.407 57.444 9.922-.436 19.497 4.082 25.505 11.993 19.843 26.129 53.824 43.357 92.418 43.357 38.682 0 72.73-17.308 92.553-43.536 6.003-7.943 15.591-12.483 25.538-12.08 38.87 1.573 78.253-19.408 100.062-57.46 20-34.897 20.27-75.51 4.145-107.553z" fill="#e6edff"/></g></g><g><path d="m421.627 275.061-5.81 1.232 6.719 1.906c3.539 1.004 6.241 3.87 7.035 7.463l1.246 5.635 1.246-5.635c.794-3.592 3.496-6.459 7.035-7.463l6.719-1.906-5.81-1.232c-3.762-.797-6.733-3.681-7.643-7.418l-1.547-6.354-1.547 6.354c-.91 3.737-3.881 6.621-7.643 7.418z" fill="#ef5264"/></g><g><path d="m387.81 164.026-5.81 1.232 6.719 1.906c3.539 1.004 6.241 3.87 7.035 7.463l1.246 5.635 1.246-5.635c.794-3.592 3.496-6.459 7.035-7.463l6.719-1.906-5.81-1.232c-3.762-.797-6.733-3.681-7.643-7.418l-1.547-6.354-1.547 6.354c-.91 3.737-3.881 6.621-7.643 7.418z" fill="#f6b545"/></g></g><g><g><g id="XMLID_228_"><g id="XMLID_3_"><path d="m6 435.992c-3.313 0-6-2.687-6-6.001v-376.09c0-27.576 22.43-50.012 50-50.012h184.94c3.313 0 6 2.687 6 6.001s-2.687 6.001-6 6.001h-184.94c-20.953 0-38 17.051-38 38.009v376.09c0 3.315-2.686 6.002-6 6.002z" fill="#310e31"/></g><g id="XMLID_230_"><path d="m329.127 463.999h-269.127c-11.046 0-20-8.956-20-20.005v-380.091c0-11.048 8.954-20.005 20-20.005h188.941l100.186 97.262v302.833c0 11.049-8.955 20.006-20 20.006z" fill="#8bb6ef"/></g><g><path d="m64 339.969v-296.07h-4c-11.046 0-20 8.956-20 20.005v380.09c0 11.048 8.954 20.005 20 20.005h269.127c11.046 0 20-8.956 20-20.005v-4.001h-185.127c-55.228 0-100-44.782-100-100.024z" fill="#8388ef"/></g><g id="XMLID_229_"><path d="m247.577 43.899v87.15c0 5.524 4.477 10.002 10 10.002h91.437l-100.073-97.152z" fill="#fff"/></g><g><path d="m265.577 97.04v-36.991l-16.637-16.15h-1.364v87.15c0 5.524 4.477 10.002 10 10.002h91.437l-14.424-14.003h-39.013c-16.568 0-29.999-13.435-29.999-30.008z" fill="#ffbffc"/></g></g><g><g><g><path d="m147.184 420.316c-3.313 0-6-2.687-6-6.001v-73.403c0-3.314 2.687-6.001 6-6.001s6 2.687 6 6.001v73.403c0 3.314-2.686 6.001-6 6.001z" fill="#310e31"/></g><g><path d="m179.184 420.316c-3.313 0-6-2.687-6-6.001v-90.021c0-3.314 2.687-6.001 6-6.001s6 2.687 6 6.001v90.021c0 3.314-2.686 6.001-6 6.001z" fill="#310e31"/></g><g><path d="m115.184 420.316c-3.313 0-6-2.687-6-6.001v-45.705c0-3.314 2.687-6.001 6-6.001s6 2.687 6 6.001v45.705c0 3.314-2.686 6.001-6 6.001z" fill="#310e31"/></g><g><path d="m83.184 420.316c-3.313 0-6-2.687-6-6.001v-56.785c0-3.314 2.687-6.001 6-6.001s6 2.687 6 6.001v56.785c0 3.314-2.686 6.001-6 6.001z" fill="#310e31"/></g></g><g><g><g><path d="m119.625 193.435c-26.201 0-47.441 21.245-47.441 47.452s21.24 47.452 47.441 47.452 47.441-21.245 47.441-47.452h-47.441z" fill="#78eac4"/></g><g><path d="m137.704 275.954c-33.822 0-55.5-35.989-39.694-65.897l7.683-14.538c-19.401 5.954-33.509 24.011-33.509 45.369 0 26.207 21.24 47.452 47.441 47.452 12.312 0 23.527-4.693 31.959-12.385h-13.88z" fill="#71afc4"/></g><g><path d="m119.625 294.341c-29.467 0-53.44-23.979-53.44-53.453s23.973-53.454 53.44-53.454c3.313 0 6 2.687 6 6.001v41.451h41.441c3.313 0 6 2.687 6 6.001-.001 29.475-23.974 53.454-53.441 53.454zm-6-94.471c-20.017 2.917-35.44 20.2-35.44 41.018 0 22.856 18.59 41.45 41.44 41.45 20.813 0 38.092-15.427 41.008-35.449h-41.008c-3.313 0-6-2.687-6-6.001z" fill="#310e31"/></g></g><g><g><path d="m142.743 170.311v47.452h47.441c0-26.207-21.24-47.452-47.441-47.452z" fill="#fff"/></g><g><path d="m156.743 184.755v-12.341c-4.426-1.365-9.126-2.103-14-2.103v47.452h47.441c0-4.511-.643-8.869-1.818-13.003h-11.622c-11.046 0-20.001-8.956-20.001-20.005z" fill="#edeeef"/></g><g><path d="m190.184 223.765h-47.441c-3.313 0-6-2.687-6-6.001v-47.452c0-3.314 2.687-6.001 6-6.001 29.467 0 53.441 23.979 53.441 53.454 0 3.312-2.686 6-6 6zm-41.441-12.003h35.008c-2.63-18.062-16.95-32.385-35.008-35.016z" fill="#310e31"/></g></g></g><g><g><path d="m316.943 227.281h-96.552c-3.313 0-6-2.687-6-6.001s2.687-6.001 6-6.001h96.552c3.313 0 6 2.687 6 6.001s-2.687 6.001-6 6.001z" fill="#310e31"/></g><g><path d="m266.943 267.291h-46.552c-3.313 0-6-2.687-6-6.001s2.687-6.001 6-6.001h46.552c3.313 0 6 2.687 6 6.001s-2.687 6.001-6 6.001z" fill="#310e31"/></g><g><path d="m316.943 187.272h-8.647c-3.313 0-6-2.687-6-6.001s2.687-6.001 6-6.001h8.647c3.313 0 6 2.687 6 6.001 0 3.313-2.687 6.001-6 6.001z" fill="#310e31"/></g><g><path d="m285.295 187.272h-64.904c-3.313 0-6-2.687-6-6.001s2.687-6.001 6-6.001h64.904c3.313 0 6 2.687 6 6.001 0 3.313-2.686 6.001-6 6.001z" fill="#310e31"/></g></g><g><path d="m275.295 415.315h-54.904c-3.313 0-6-2.687-6-6.001s2.687-6.001 6-6.001h54.904c3.313 0 6 2.687 6 6.001s-2.686 6.001-6 6.001z" fill="#310e31"/></g><g><g><path d="m137.184 99.584h-65c-3.313 0-6-2.687-6-6.001s2.687-6.001 6-6.001h65c3.313 0 6 2.687 6 6.001s-2.686 6.001-6 6.001z" fill="#310e31"/></g><g><path d="m187.184 139.593h-8c-3.313 0-6-2.687-6-6.001s2.687-6.001 6-6.001h8c3.313 0 6 2.687 6 6.001s-2.686 6.001-6 6.001z" fill="#310e31"/></g><g><path d="m156.529 139.593h-84.345c-3.313 0-6-2.687-6-6.001s2.687-6.001 6-6.001h84.345c3.313 0 6 2.687 6 6.001s-2.687 6.001-6 6.001z" fill="#310e31"/></g></g></g></g><g><g><g><ellipse cx="332.374" cy="326.339" fill="#fef2a8" rx="67" ry="67.016"/></g><g><path d="m342.374 373.35c-37.003 0-67-30.004-67-67.016 0-6.785 1.017-13.33 2.891-19.502-8.099 11.079-12.891 24.73-12.891 39.507 0 37.012 29.997 67.016 67 67.016 30.22 0 55.758-20.016 64.109-47.514-12.188 16.672-31.879 27.509-54.109 27.509z" fill="#eeb6a8"/></g></g><g><g><path d="m399.425 393.41-.004.004c-9.37 9.372-9.37 24.565 0 33.937l23.607 23.612c9.373 9.375 24.572 9.375 33.945 0l.004-.004c9.37-9.372 9.37-24.565 0-33.937l-23.607-23.612c-9.373-9.375-24.572-9.375-33.945 0z" fill="#b07676"/></g><g><path d="m460.114 420.897-8.859 7.801c-7.921 6.974-19.896 6.593-27.357-.87l-28.698-28.704c-4.821 9.074-3.416 20.589 4.227 28.234l23.603 23.608c9.373 9.375 24.569 9.375 33.941 0 8.168-8.17 9.212-20.762 3.143-30.069z" fill="#a45775"/></g></g></g><g><g><path d="m464 53.901c-30.329 63.866-121.671 63.866-152 0 30.329-63.866 121.671-63.866 152 0z" fill="#fff"/></g><g><path d="m330 53.901c13.666-28.779 39.722-44.583 67-47.426-33.259-3.466-68.337 12.338-85 47.426 16.663 35.088 51.741 50.892 85 47.426-27.278-2.843-53.333-18.648-67-47.426z" fill="#edeeef"/></g><g><ellipse cx="388" cy="53.901" fill="#ef8bbd" rx="42.817" ry="48.011"/></g><g><g><ellipse cx="388" cy="53.901" fill="#edeeef" rx="18" ry="18.004"/></g><g><path d="m388 77.907c-13.233 0-24-10.769-24-24.006s10.767-24.006 24-24.006 24 10.769 24 24.006-10.767 24.006-24 24.006zm0-36.009c-6.617 0-12 5.385-12 12.003s5.383 12.003 12 12.003 12-5.385 12-12.003-5.383-12.003-12-12.003z" fill="#310e31"/></g></g></g></g><g fill="#310e31"><path d="m461.213 412.773-23.603-23.608c-9.913-9.915-26.046-11.6-37.76-3.82l-11.826-11.829c10.812-12.731 17.349-29.2 17.349-47.177 0-32.316-21.105-59.779-50.247-69.367v-115.811c0-1.623-.657-3.177-1.821-4.307l-100.186-97.262c-1.12-1.087-2.618-1.695-4.179-1.695h-188.94c-14.336 0-26 11.666-26 26.006v380.09c0 14.341 11.664 26.007 26 26.007h269.126c14.336 0 26-11.666 26-26.006v-48.288c9.042-2.975 17.309-7.674 24.413-13.702l11.825 11.828c-3.231 4.867-4.968 10.575-4.968 16.551 0 8.016 3.121 15.551 8.787 21.218l23.603 23.609c11.546 11.548 30.877 11.551 42.427 0 11.546-11.549 11.549-30.885 0-42.437zm-207.636-356.01 80.64 78.287h-76.64c-2.206 0-4-1.795-4-4.001zm89.55 387.231c0 7.722-6.28 14.003-14 14.003h-269.127c-7.72 0-14-6.282-14-14.003v-380.091c0-7.721 6.28-14.003 14-14.003h181.577v81.149c0 8.824 7.178 16.004 16 16.004h85.55v107.067c-3.511-.521-7.1-.798-10.753-.798-39.231 0-71.319 31.118-72.923 69.971h-39.06c-3.313 0-6 2.687-6 6.001s2.687 6.001 6 6.001h39.551c1.244 10.117 4.557 19.598 9.514 28.007h-49.065c-3.313 0-6 2.687-6 6.001s2.687 6.001 6 6.001h57.879c13.367 14.762 32.67 24.051 54.103 24.051 3.653 0 7.242-.278 10.753-.798v45.437zm-10.753-56.64c-33.636 0-61-27.371-61-61.015s27.364-61.015 61-61.015 61 27.371 61 61.015-27.365 61.015-61 61.015zm120.354 59.369c-7.019 7.02-18.438 7.019-25.456 0l-23.603-23.609c-7.018-7.02-7.018-18.442 0-25.462 6.929-6.93 18.527-6.931 25.456 0l23.603 23.608c7.019 7.02 7.019 18.443 0 25.463z"/><path d="m469.419 51.326c-15.034-31.659-46.232-51.326-81.419-51.326s-66.385 19.667-81.419 51.326c-.774 1.629-.774 3.52 0 5.15 15.034 31.659 46.232 51.326 81.419 51.326s66.385-19.667 81.419-51.326c.774-1.629.774-3.521 0-5.15zm-44.602 2.575c0 20.646-14.764 41.898-36.817 41.898-22.058 0-36.817-21.259-36.817-41.898 0-20.646 14.764-41.898 36.817-41.898 22.058 0 36.817 21.259 36.817 41.898zm-106.118 0c6.887-13.258 17.137-23.907 29.456-31.155-5.646 8.808-8.972 19.557-8.972 31.155 0 11.6 3.328 22.35 8.976 31.157-12.32-7.248-22.572-17.897-29.46-31.157zm109.142 31.157c5.648-8.808 8.976-19.558 8.976-31.157 0-11.598-3.326-22.347-8.972-31.155 12.319 7.248 22.569 17.897 29.456 31.155-6.888 13.26-17.14 23.909-29.46 31.157z"/></g></g></svg>